<?xml version="1.0" encoding="utf-8"?>
<!-- Generator: Adobe Illustrator 17.1.0, SVG Export Plug-In . SVG Version: 6.00 Build 0)  -->
<!DOCTYPE svg PUBLIC "-//W3C//DTD SVG 1.1//EN" "http://www.w3.org/Graphics/SVG/1.1/DTD/svg11.dtd">
<svg version="1.1" id="Layer_1" xmlns="http://www.w3.org/2000/svg" xmlns:xlink="http://www.w3.org/1999/xlink" x="0px" y="0px"
     viewBox="0 0 607 606.8" enable-background="new 0 0 607 606.8" xml:space="preserve">
<path fill="#ffffff" d="M607,143.7L463.4,0l-89.8,89.8c-15.4,15.4-24.4,35.5-25.8,57L303,102.1L240.1,165l22.8,22.8L74.3,246.7
    L0,606.8L360.3,535L420,345l22,22l62.9-62.9l-44.3-44.3c21.2-1.5,40.8-10.4,56-25.5L607,143.7z M337,509.1L64.9,563.3l137.5-137.5
    c8.4,4.8,18.1,7.6,28.5,7.6c31.6,0,57.3-25.7,57.3-57.3s-25.7-57.3-57.3-57.3s-57.3,25.7-57.3,57.3c0,10.4,2.8,20.1,7.6,28.5
    l-137,137l56-271.7l186.7-58.2L396.1,321L337,509.1z M203.5,376.2c0-15.1,12.3-27.3,27.3-27.3s27.3,12.3,27.3,27.3
    s-12.3,27.3-27.3,27.3S203.5,391.2,203.5,376.2z M442,324.5L282.5,165l20.5-20.5l65.5,65.5c1.6,1.9,3.3,3.8,5.1,5.6l18.6,18.6
    c1.8,1.8,3.6,3.5,5.5,5.1l64.8,64.8L442,324.5z M454.4,229.9c-13.4,0-26.1-4.5-36.4-12.8l-27.4-27.4c-8.5-10.5-13.1-23.4-13.1-37
    c0-15.7,6.1-30.5,17.3-41.7l68.6-68.6l101.2,101.2l-69.3,69.3C484.4,223.9,469.8,229.9,454.4,229.9z"/>
</svg>
