<?xml version="1.0" encoding="utf-8"?>
<!-- Generator: Adobe Illustrator 17.1.0, SVG Export Plug-In . SVG Version: 6.00 Build 0)  -->
<!DOCTYPE svg PUBLIC "-//W3C//DTD SVG 1.1//EN" "http://www.w3.org/Graphics/SVG/1.1/DTD/svg11.dtd">
<svg version="1.1" id="Layer_1" xmlns="http://www.w3.org/2000/svg" xmlns:xlink="http://www.w3.org/1999/xlink" x="0px" y="0px"
     viewBox="0 0 595.3 841.9" enable-background="new 0 0 595.3 841.9" xml:space="preserve">
<g>
    <path fill="#CCD8DE" d="M591.1,193c-4.2-16.9-8.4-25.3-8.4-25.3c0-21.1-12.7-21.1-33.8-21.1l-97.1-12.7c-12.7,0-12.7,0-16.9-12.7
        c-16.9-38-21.1-59.1-42.2-59.1h-190c-16.9,0-21.1,21.1-38,59.1c-4.2,8.4-4.2,8.4-16.9,12.7L46.4,146.5c-16.9,0-29.6,4.2-33.8,21.1
        c0,0-4.2,8.4-8.4,25.3c-4.2,21.1-8.4,16.9,12.7,16.9h565.7C599.5,209.9,599.5,214.1,591.1,193z"/>
    <path fill="#CCD8DE" d="M527.7,273.2H67.5c-29.6,0-33.8,0-29.6,25.3l33.8,451.7c4.2,25.3,4.2,29.6,33.8,29.6H494
        c25.3,0,29.6-4.2,33.8-29.6l33.8-451.7C561.5,273.2,561.5,273.2,527.7,273.2z"/>
</g>
</svg>
