<?xml version="1.0" encoding="utf-8"?>
<!-- Generator: Adobe Illustrator 17.1.0, SVG Export Plug-In . SVG Version: 6.00 Build 0)  -->
<!DOCTYPE svg PUBLIC "-//W3C//DTD SVG 1.1//EN" "http://www.w3.org/Graphics/SVG/1.1/DTD/svg11.dtd">
<svg version="1.1" id="Layer_1" xmlns="http://www.w3.org/2000/svg" xmlns:xlink="http://www.w3.org/1999/xlink" x="0px" y="0px"
     viewBox="0 0 595.3 841.9" enable-background="new 0 0 595.3 841.9" xml:space="preserve">
<path fill="#FFFFFF" d="M297,123.3c-163.5,0-297,133.5-297,297c0,164.8,133.5,297,297,297s297-133.5,297-297
    C595.3,256.8,461.8,123.3,297,123.3z M486.3,260.9c34.1,39.5,54.5,89.9,58.6,144.4c-53.1-2.7-117.1-2.7-168.9,1.4
    c-6.8-16.3-13.6-32.7-20.4-47.7C414.1,333.1,460.4,299,486.3,260.9z M297,172.3c59.9,0,115.8,21.8,158,57.2
    c-27.2,34.1-69.5,64-122.6,85.8c-28.6-53.1-61.3-99.4-96.7-134.9C256.1,176.4,276.5,172.3,297,172.3z M185.3,199.6
    c35.4,35.4,69.5,80.4,99.4,133.5c-55.9,17.7-119.9,27.2-188,27.2c-13.6,0-25.9,0-38.1-1.4C74.9,289.5,122.6,232.3,185.3,199.6z
     M50.4,409.4c13.6,0,28.6,1.4,42.2,1.4c77.6-1.4,151.2-13.6,212.5-32.7c5.4,12.3,10.9,24.5,16.3,38.1c-8.2,1.4-16.3,4.1-21.8,6.8
    c-85.8,35.4-152.6,94-189.3,163.5C72.2,542.9,49,485.6,49,423C49,416.2,50.4,413.5,50.4,409.4z M297,668.2
    c-57.2,0-110.3-19.1-152.6-51.8c32.7-65.4,91.3-119.9,166.2-152.6c6.8-2.7,16.3-5.4,27.2-8.2c8.2,24.5,16.3,50.4,23.2,76.3
    c10.9,40.9,17.7,81.7,23.2,121.2C358.3,662.7,328.3,668.2,297,668.2z M431.8,628.7c-4.1-39.5-12.3-80.4-23.2-122.6
    c-5.4-20.4-10.9-39.5-17.7-58.6c49-4.1,106.3-4.1,152.6,0C535.3,523.8,493.1,589.2,431.8,628.7z"/>
</svg>
