<?xml version="1.0" encoding="utf-8"?>
<!-- Generator: Adobe Illustrator 17.1.0, SVG Export Plug-In . SVG Version: 6.00 Build 0)  -->
<!DOCTYPE svg PUBLIC "-//W3C//DTD SVG 1.1//EN" "http://www.w3.org/Graphics/SVG/1.1/DTD/svg11.dtd">
<svg version="1.1" id="Layer_1" xmlns="http://www.w3.org/2000/svg" xmlns:xlink="http://www.w3.org/1999/xlink" x="0px" y="0px"
     viewBox="0 0 595.3 841.9" enable-background="new 0 0 595.3 841.9" xml:space="preserve">
<path fill="#CCD8DE" d="M297.6,123.3C133.4,123.3,0,256.7,0,420.9s133.4,297.6,297.6,297.6s297.6-133.4,297.6-297.6
    S462.5,123.3,297.6,123.3z M297.6,148.2c150.6,0,272.7,122.1,272.7,272.7c0,66.4-23.7,127.5-63.4,174.9
    c-28.5-11.9-94.3-34.4-132.8-45.7c-3.6-1.2-4.2-1.2-4.2-15.4c0-11.9,4.7-23.1,9.5-33.2c5.3-10.7,11.3-29.1,13-45.1
    c5.9-7.1,14.2-20.8,19.6-46.8c4.7-23.1,2.4-31.4-0.6-39.7c0-0.6-0.6-1.8-0.6-2.4c-1.2-5.3,0.6-33.8,4.2-55.7
    c3-14.8-0.6-46.8-21.3-73.5c-13-16.6-37.9-37.4-83.6-40.3h-24.9c-45.1,3-70,23.1-83,40.3c-20.8,26.7-24.3,58.1-21.3,73.5
    c4.2,21.9,5.3,49.8,4.2,55.7c0,1.2-0.6,1.8-0.6,2.4c-3,7.7-5.3,16.6-0.6,39.7c5.3,26.1,13.6,40.3,19.6,46.8
    c2.4,16.6,8.3,34.4,13,45.1c3.6,7.7,5.3,18.4,5.3,33.8c0,14.2-0.6,14.2-3.6,15.4c-40.3,11.9-103.8,35-129.3,45.7
    c-39.7-47.4-64-108.5-64-175.5C24.9,270.3,147,148.2,297.6,148.2z"/>
</svg>
