<?xml version="1.0" encoding="utf-8"?>
<!-- Generator: Adobe Illustrator 17.1.0, SVG Export Plug-In . SVG Version: 6.00 Build 0)  -->
<!DOCTYPE svg PUBLIC "-//W3C//DTD SVG 1.1//EN" "http://www.w3.org/Graphics/SVG/1.1/DTD/svg11.dtd">
<svg version="1.1" id="Layer_1" xmlns="http://www.w3.org/2000/svg" xmlns:xlink="http://www.w3.org/1999/xlink" x="0px" y="0px"
     viewBox="0.4 125.1 595.4 591.6" enable-background="new 0.4 125.1 595.4 591.6" xml:space="preserve">
<path fill="#333333" d="M595.8,332c0.1-32.5-12.5-63-35.5-86l-83.1-83.1c-24.4-24.4-56.9-37.8-91.4-37.8s-67,13.4-91.4,37.8
    l-12.5,12.5l-270,270c-6.8,6.8-11.6,18.3-11.6,28.1l0.5,217.4c0,13.9,11.3,25.3,25.2,25.3l217.4,0.5c0,0,0,0,0,0
    c9.7,0,21.2-4.8,28-11.6L531.1,446c0.3-0.3,0.6-0.6,1-0.9l27.6-27.6l0,0c0,0,0,0,0,0l0.5-0.5C583,394.4,595.7,364.3,595.8,332z
     M77.8,683.4l-43.6-43.6c-1-1-2.2-1.9-3.4-2.6l-0.3-144.5l84.1,10.7l9.6,62.1c1,6.6,6.2,11.7,12.8,12.6l77.1,10.7l10.6,97.8
    L80,686.3C79.4,685.2,78.7,684.3,77.8,683.4z M271.6,228.2l51.8,50.3L122.4,474.1l-85.8-10.9L271.6,228.2z M222.4,559.7l-70.4-9.8
    l-8.4-54.6L345,299.4l72.3,70.2L222.4,559.7z M514.2,420.5L293,206.8l22.1-22.1c18.7-18.7,43.7-29.1,70.1-29.1
    c26.5,0,51.4,10.3,70.1,29.1l83.1,83.1c17.3,17.3,26.8,40.3,26.8,64.7c-0.1,24.2-9.6,46.8-26.7,63.8L514.2,420.5z M30.9,678.9
    l7.3,7.3l-7.3,0L30.9,678.9z M254.1,680.2l-10.7-99l195.5-190.7l53.4,51.9L254.1,680.2z"/>
</svg>
