<?xml version="1.0" encoding="utf-8"?>
<!-- Generator: Adobe Illustrator 17.1.0, SVG Export Plug-In . SVG Version: 6.00 Build 0)  -->
<!DOCTYPE svg PUBLIC "-//W3C//DTD SVG 1.1//EN" "http://www.w3.org/Graphics/SVG/1.1/DTD/svg11.dtd">
<svg version="1.1" id="Layer_1" xmlns="http://www.w3.org/2000/svg" xmlns:xlink="http://www.w3.org/1999/xlink" x="0px" y="0px"
     viewBox="0 0 595.3 841.9" enable-background="new 0 0 595.3 841.9" xml:space="preserve">
<g>
    <path fill="#FFFFFF" d="M254.3,190.7c15.2,12.9,48,39.8,48,90.2c0,49.2-28.1,72.7-57.4,94.9c-9.4,8.2-18.7,17.6-18.7,32.8
        c0,15.2,10.5,22.3,17.6,29.3l24.6,18.7c30.5,24.6,57.4,48,57.4,93.7c0,63.3-62.1,126.6-179.3,126.6C48,675.8,0,630.1,0,579.7
        c0-24.6,11.7-58.6,52.7-82c42.2-25.8,99.6-29.3,130.1-30.5c-9.4-11.7-19.9-24.6-19.9-45.7c0-11.7,3.5-17.6,7-25.8
        c-7,1.2-15.2,1.2-22.3,1.2C75,396.9,34,344.2,34,291.5C34,261,48,227,77.3,202.4c39.8-30.5,85.5-36.3,121.9-36.3h140.6l-43.4,24.6
        H254.3z M206.2,487.2c-5.9-1.2-9.4-1.2-15.2-1.2s-43.4,1.2-71.5,10.5c-15.2,5.9-58.6,21.1-58.6,69.1s46.9,82,119.5,82
        c65.6,0,99.6-30.5,99.6-72.7C280.1,541.1,257.8,523.5,206.2,487.2 M226.2,360.6c15.2-15.2,17.6-36.3,17.6-49.2
        c0-48-29.3-123-85.5-123c-17.6,0-36.3,8.2-48,22.3c-12.9,14.1-16.4,31.6-16.4,49.2c0,44.5,27,119.5,85.5,119.5
        C196.9,379.3,214.4,371.1,226.2,360.6"/>
    <polygon fill="#FFFFFF" points="595.3,270.4 491,270.4 491,166.1 467.6,166.1 467.6,270.4 362.1,270.4 362.1,293.8 467.6,293.8 
        467.6,401.6 491,401.6 491,293.8 595.3,293.8     "/>
</g>
</svg>
