<?xml version="1.0" encoding="utf-8"?>
<!-- Generator: Adobe Illustrator 17.1.0, SVG Export Plug-In . SVG Version: 6.00 Build 0)  -->
<!DOCTYPE svg PUBLIC "-//W3C//DTD SVG 1.1//EN" "http://www.w3.org/Graphics/SVG/1.1/DTD/svg11.dtd">
<svg version="1.1" id="Layer_1" xmlns="http://www.w3.org/2000/svg" xmlns:xlink="http://www.w3.org/1999/xlink" x="0px" y="0px"
     viewBox="0 0 595.3 841.9" enable-background="new 0 0 595.3 841.9" xml:space="preserve">
<path fill="#FFFFFF" d="M595.3,196.9c0-40.9-32.7-73.6-73.6-73.6H73.6C32.7,123.3,0,156,0,196.9V645c0,40.9,32.7,73.6,73.6,73.6
    h448.2c40.9,0,73.6-32.7,73.6-73.6L595.3,196.9L595.3,196.9z M298.3,296.3c68.1,0,124,55.9,124,124s-55.9,124-124,124
    s-124-55.9-124-124S230.2,296.3,298.3,296.3z M544.9,271.8c0,13.6-10.9,24.5-24.5,24.5h-74.9c-13.6,0-24.5-10.9-24.5-24.5v-73.6
    c0-13.6,10.9-24.5,24.5-24.5h74.9c13.6,0,24.5,10.9,24.5,24.5V271.8z M521.7,668.2H76.3c-13.6,0-25.9-12.3-25.9-25.9V371.2h81.7
    c-4.1,15-6.8,31.3-6.8,49c0,46.3,17.7,89.9,50.4,122.6s76.3,50.4,122.6,50.4s89.9-17.7,122.6-50.4c32.7-32.7,50.4-76.3,50.4-122.6
    c0-16.3-2.7-34.1-6.8-49h80.4v271.1C544.9,655.9,535.3,668.2,521.7,668.2z"/>
</svg>
