<?xml version="1.0" encoding="utf-8"?>
<!-- Generator: Adobe Illustrator 17.1.0, SVG Export Plug-In . SVG Version: 6.00 Build 0)  -->
<!DOCTYPE svg PUBLIC "-//W3C//DTD SVG 1.1//EN" "http://www.w3.org/Graphics/SVG/1.1/DTD/svg11.dtd">
<svg version="1.1" id="Layer_1" xmlns="http://www.w3.org/2000/svg" xmlns:xlink="http://www.w3.org/1999/xlink" x="0px" y="0px"
     viewBox="0 0 595.3 841.9" enable-background="new 0 0 595.3 841.9" xml:space="preserve">
<g>
    <path fill="#747474" d="M297.6,29.2c62.5,0,125,25,170.9,70.9s70.9,104.2,70.9,170.9c0,79.2-45.8,200.1-129.2,350.1
        c-41.7,70.9-83.4,133.4-108.4,170.9c-25-37.5-66.7-100-108.4-170.9C105.9,475.1,64.2,354.3,64.2,270.9c0-62.5,25-125,70.9-170.9
        S231,29.2,297.6,29.2 M297.6,0C147.6,0,26.7,120.9,26.7,270.9c0,208.4,270.9,571,270.9,571s270.9-362.6,270.9-571
        C568.5,120.9,447.7,0,297.6,0L297.6,0z"/>
    <path fill="#747474" d="M297.6,150c-66.7,0-120.9,54.2-120.9,120.9S231,391.8,297.6,391.8s120.9-54.2,120.9-120.9
        S364.3,150,297.6,150z M297.6,358.4c-50,0-87.5-37.5-87.5-87.5s37.5-87.5,87.5-87.5s87.5,37.5,87.5,87.5S343.5,358.4,297.6,358.4z"
        />
</g>
</svg>
