<?xml version="1.0" encoding="utf-8"?>
<!-- Generator: Adobe Illustrator 17.1.0, SVG Export Plug-In . SVG Version: 6.00 Build 0)  -->
<!DOCTYPE svg PUBLIC "-//W3C//DTD SVG 1.1//EN" "http://www.w3.org/Graphics/SVG/1.1/DTD/svg11.dtd">
<svg version="1.1" id="Layer_1" xmlns="http://www.w3.org/2000/svg" xmlns:xlink="http://www.w3.org/1999/xlink" x="0px" y="0px"
     viewBox="0 0 18.7 29.1" enable-background="new 0 0 18.7 29.1" xml:space="preserve">
<g>
    <path fill="#FFFFFF" d="M9.4,1c2.2,0,4.3,0.9,5.9,2.4s2.4,3.7,2.4,5.9c0,2.8-1.6,7-4.5,12.1c-1.4,2.5-2.9,4.7-3.8,5.9
        C8.5,26.1,7,24,5.6,21.5C2.6,16.3,1,12.2,1,9.4c0-2.2,0.9-4.3,2.4-5.9S7.1,1,9.4,1 M9.4,0C4.2,0,0,4.2,0,9.4
        c0,7.3,9.4,19.8,9.4,19.8s9.4-12.5,9.4-19.8C18.7,4.2,14.5,0,9.4,0L9.4,0z"/>
    <path fill="#FFFFFF" d="M9.4,5.2c-2.3,0-4.2,1.9-4.2,4.2s1.9,4.2,4.2,4.2s4.2-1.9,4.2-4.2S11.7,5.2,9.4,5.2z M9.4,12.4
        c-1.7,0-3.1-1.4-3.1-3.1s1.4-3.1,3.1-3.1s3.1,1.4,3.1,3.1S11.1,12.4,9.4,12.4z"/>
</g>
</svg>
