<?xml version="1.0" encoding="utf-8"?>
<!-- Generator: Adobe Illustrator 17.1.0, SVG Export Plug-In . SVG Version: 6.00 Build 0)  -->
<!DOCTYPE svg PUBLIC "-//W3C//DTD SVG 1.1//EN" "http://www.w3.org/Graphics/SVG/1.1/DTD/svg11.dtd">
<svg version="1.1" id="Layer_1" xmlns="http://www.w3.org/2000/svg" xmlns:xlink="http://www.w3.org/1999/xlink" x="0px" y="0px"
     viewBox="0 0 150.6 57.2" enable-background="new 0 0 150.6 57.2" xml:space="preserve">
<rect x="-1188" y="-209.6" display="none" fill="#A5A5B0" width="1391.8" height="623"/>
<g>
    <path fill="#F0B11D" d="M42,52.2c5.3-3.6,17.6-12.6,65.3-11.9c6.8,0,11.1,12.8-2.7,12.1c-24.4-1.3-36.5-4.6-59.7,3.4
        C35.5,59,38.1,56.1,42,52.2z"/>
    <g>
        <g>
            <path fill="#373636" d="M18.8,19.6c0.1,0,0.3,0,0.4,0.1c0.1,0.1,0.3,0.1,0.4,0.3l2.4,2.5c-1,1.4-2.3,2.4-3.9,3.1
                c-1.6,0.7-3.4,1-5.5,1c-2,0-3.7-0.3-5.3-1C5.7,25,4.4,24,3.3,22.8c-1.1-1.2-1.9-2.6-2.5-4.2C0.3,17,0,15.2,0,13.3
                C0,11.4,0.3,9.6,1,8s1.6-3,2.8-4.2C4.9,2.6,6.4,1.6,8,1s3.5-1,5.5-1c1,0,1.9,0.1,2.7,0.3s1.7,0.4,2.4,0.7c0.7,0.3,1.4,0.7,2,1.1
                c0.6,0.4,1.2,0.9,1.7,1.4l-2,2.7c-0.1,0.2-0.3,0.3-0.5,0.5c-0.2,0.1-0.4,0.2-0.7,0.2c-0.2,0-0.4,0-0.6-0.1
                c-0.2-0.1-0.4-0.2-0.6-0.3s-0.4-0.3-0.7-0.4s-0.6-0.3-0.9-0.4c-0.3-0.1-0.8-0.3-1.2-0.3C14.6,5,14,5,13.4,5c-1.1,0-2.1,0.2-3,0.6
                C9.6,6,8.8,6.5,8.1,7.2S7,8.8,6.6,9.9c-0.4,1-0.5,2.2-0.5,3.5c0,1.3,0.2,2.5,0.5,3.6c0.4,1,0.8,1.9,1.5,2.6
                c0.6,0.7,1.3,1.3,2.2,1.6c0.8,0.4,1.7,0.6,2.6,0.6c0.5,0,1,0,1.5-0.1s0.9-0.1,1.2-0.3s0.7-0.3,1.1-0.5c0.3-0.2,0.7-0.5,1.1-0.8
                c0.1-0.1,0.3-0.2,0.5-0.3S18.6,19.6,18.8,19.6z"/>
            <path fill="#373636" d="M52.8,26.4h-6v-11H36.3v11h-6V0.3h6v10.9h10.5V0.3h6V26.4z"/>
            <path fill="#373636" d="M69.2,26.4h-6V0.3h6V26.4z"/>
            <path fill="#373636" d="M96.2,0.3v4.7H85.6V11h8.1v4.5h-8.1v6.2h10.6v4.7H79.6V0.3H96.2z"/>
            <path fill="#373636" d="M111.2,16.7v9.6h-6V0.3h8.4c1.9,0,3.4,0.2,4.8,0.6s2.4,0.9,3.2,1.6c0.8,0.7,1.4,1.5,1.8,2.5
                c0.4,0.9,0.6,2,0.6,3.1c0,0.8-0.1,1.6-0.3,2.4s-0.6,1.4-1,2.1c-0.4,0.6-1,1.2-1.6,1.7c-0.6,0.5-1.4,0.9-2.2,1.2
                c0.4,0.2,0.8,0.5,1.1,0.8c0.3,0.3,0.7,0.7,0.9,1.1l5.5,9.1h-5.4c-1,0-1.7-0.4-2.2-1.1l-4.3-7.6c-0.2-0.3-0.4-0.6-0.7-0.7
                s-0.6-0.2-1.1-0.2H111.2z M111.2,12.5h2.4c0.8,0,1.5-0.1,2.1-0.3c0.6-0.2,1-0.5,1.4-0.9c0.4-0.4,0.6-0.8,0.8-1.3
                c0.2-0.5,0.2-1,0.2-1.6c0-1.1-0.4-2-1.1-2.7c-0.7-0.6-1.9-1-3.4-1h-2.4V12.5z"/>
            <path fill="#373636" d="M148.7,5.6c-0.2,0.3-0.4,0.5-0.6,0.6s-0.4,0.2-0.8,0.2c-0.3,0-0.6-0.1-0.9-0.3c-0.3-0.2-0.7-0.4-1.1-0.6
                c-0.4-0.2-0.8-0.4-1.4-0.6c-0.5-0.2-1.1-0.3-1.7-0.3c-1.1,0-2,0.2-2.5,0.7c-0.5,0.5-0.8,1.1-0.8,2c0,0.5,0.2,1,0.5,1.3
                c0.3,0.3,0.8,0.6,1.3,0.9c0.5,0.3,1.1,0.5,1.8,0.7c0.7,0.2,1.4,0.4,2.1,0.7c0.7,0.3,1.4,0.6,2.1,0.9c0.7,0.3,1.3,0.8,1.8,1.3
                s1,1.2,1.3,2c0.3,0.8,0.5,1.7,0.5,2.8c0,1.2-0.2,2.3-0.6,3.4c-0.4,1-1,2-1.8,2.7c-0.8,0.8-1.7,1.4-2.9,1.8
                c-1.1,0.4-2.5,0.7-3.9,0.7c-0.8,0-1.6-0.1-2.4-0.3s-1.6-0.4-2.4-0.7c-0.8-0.3-1.5-0.7-2.2-1.1c-0.7-0.4-1.3-0.9-1.8-1.4l1.8-2.8
                c0.1-0.2,0.3-0.4,0.5-0.5c0.2-0.1,0.5-0.2,0.8-0.2c0.4,0,0.7,0.1,1.1,0.3c0.4,0.2,0.8,0.5,1.2,0.8s1,0.5,1.6,0.8
                c0.6,0.2,1.3,0.3,2.1,0.3c1.1,0,1.9-0.2,2.5-0.7c0.6-0.5,0.9-1.2,0.9-2.3c0-0.6-0.2-1.1-0.5-1.5c-0.3-0.4-0.8-0.7-1.3-0.9
                c-0.5-0.3-1.1-0.5-1.8-0.7s-1.4-0.4-2.1-0.6c-0.7-0.2-1.4-0.5-2.1-0.9c-0.7-0.3-1.3-0.8-1.8-1.3s-1-1.2-1.3-2.1
                c-0.3-0.8-0.5-1.9-0.5-3.1c0-1,0.2-1.9,0.6-2.9c0.4-0.9,1-1.8,1.7-2.5c0.8-0.7,1.7-1.3,2.8-1.7c1.1-0.4,2.3-0.7,3.8-0.7
                c0.8,0,1.6,0.1,2.3,0.2c0.7,0.1,1.5,0.3,2.1,0.6c0.7,0.2,1.3,0.5,1.9,0.9c0.6,0.3,1.1,0.7,1.6,1.2L148.7,5.6z"/>
        </g>
    </g>
</g>
</svg>
