<?xml version="1.0" encoding="utf-8"?>
<!-- Generator: Adobe Illustrator 17.1.0, SVG Export Plug-In . SVG Version: 6.00 Build 0)  -->
<!DOCTYPE svg PUBLIC "-//W3C//DTD SVG 1.1//EN" "http://www.w3.org/Graphics/SVG/1.1/DTD/svg11.dtd">
<svg version="1.1" id="Layer_1" xmlns="http://www.w3.org/2000/svg" xmlns:xlink="http://www.w3.org/1999/xlink" x="0px" y="0px"
     viewBox="0 0 595.3 841.9" enable-background="new 0 0 595.3 841.9" xml:space="preserve">
<g>
    <g>
        <path fill="#FFFFFF" d="M383.7,476.4c-7.4,0-12.8-2.2-17.5-5.7c-17.2-13.7-13.7-42.3,12-99.7c1.1-2.7,22.1-42.1-2.2-22.7
            c-23.2,16.9-60.9,75.1-94.2,120.7c-4.1,5.7-11.5,7.6-17.7,4.6s-9.8-9.8-8.2-16.7c0.3-1.6,29.2-97.2,75.9-191.7
            c-13.4-2.2-27.3-5.2-41.8-9.3c0,0.3,0,0.5-0.3,0.8C244.4,419.6,183.5,463,140.4,470.6c-38.5,6.8-78.4-12.8-106.5-52.2
            C15,391.5,0,307.9,41.5,251.1c28.9-39.3,93.7-75.9,238.9-28.4c23.5,7.6,45.3,12.6,65.8,15c36.9-69.1,83-132.2,133.8-151.3
            c45.3-17.2,66.4,1.9,73.5,11.2c17.7,22.9,13.1,61.7-11.5,96.7c-28.1,39.9-82.2,74-159.7,74.8c-6.3,0-42.9,91.7-40.4,89.6
            c38.8-35,53.2-35,63.1-29.2c18.8,10.9,6,39.6,0,53.2c-19.9,44.5-20.5,59.8-19.9,64.2c4.1,24.8,38-0.8,38-0.8s-3-5.7-3.3-14.5
            c-0.3-6.8,0.5-14.5,2.2-23.8c9.8-53.5,44.5-80.6,74.5-83.6c18.3-1.9,33.3,5.7,38.8,19.7c4.4,11.2,5.7,35-36.9,67.7
            c-16.9,13.1-31.7,23.8-44.8,32.5c4.1,17.2,45.9,2.7,61.2-12.3c21-20.8,19.9-4.4,15.6,2.5c-11.2,16.9-57.3,49.2-87.9,36.9
            c-4.9-1.9-10.1-5.5-14.2-10.9C408,471.7,394,476.4,383.7,476.4z M44.5,331.9c-1.6,30.3,5.5,58.7,13.7,69.6
            c22.1,46.7,144.5,67.2,204-152.4c0.3-0.5,0.3-1.1,0.5-1.6C114.7,205,48.1,278.4,44.5,331.9z M501.6,353.5c-1.9,0-4.4,0.3-7.1,0.8
            c-16.7,4.1-36.9,21.3-44,56.8c-2.7,9-3.5,18.8-1.4,17.2c7.1-5.2,31.4-22.4,43.1-33.6c20.5-19.4,24-33,15.6-39.9
            C507.6,354.3,505.4,353.5,501.6,353.5z M397.3,239.4c58.4-4.6,110.3-24.3,132.2-55.2c43.7-69.9,12.8-96.7-39-70.5
            C451.4,128.5,391.6,239.6,397.3,239.4z"/>
    </g>
</g>
<path fill="#F2B11C" d="M166,742.6c21-14.2,69.4-50,258.3-47c26.8-0.3,44,50.5-10.9,47.5c-96.4-5.2-144.2-18.3-235.9,13.7
    C140.6,769.6,150.5,758.2,166,742.6z"/>
<g>
    <path fill="#3B3B3C" d="M74.3,613.7c0.5,0,1.1,0,1.6,0.3s1.1,0.5,1.6,1.1l9.3,10.1c-4.1,5.5-9.3,9.6-15.3,12.3
        c-6.3,2.7-13.4,4.1-21.8,4.1c-7.6,0-14.7-1.4-20.8-4.1c-6-2.7-11.2-6.3-15.6-10.9c-4.4-4.6-7.6-10.4-9.8-16.7
        c-2.2-6.3-3.5-13.4-3.5-21s1.4-14.7,3.8-21.3c2.7-6.6,6.3-12,10.9-16.7c4.6-4.7,10.4-8.2,16.7-10.9c6.6-2.5,13.7-3.8,21.6-3.8
        c3.8,0,7.4,0.3,10.9,1.1c3.3,0.8,6.6,1.6,9.6,2.7c3,1.1,5.7,2.7,8.2,4.4c2.5,1.6,4.6,3.5,6.6,5.5l-7.9,10.9
        c-0.5,0.5-1.1,1.4-1.9,1.9c-0.8,0.5-1.6,0.8-3,0.8c-0.8,0-1.6-0.3-2.5-0.5c-0.8-0.3-1.6-0.8-2.5-1.4c-0.8-0.5-1.6-1.1-2.7-1.6
        c-1.1-0.5-2.2-1.1-3.5-1.6c-1.4-0.5-3-1.1-4.9-1.4c-1.9-0.3-4.1-0.5-6.6-0.5c-4.4,0-8.2,0.8-11.7,2.2c-3.5,1.4-6.6,3.8-9,6.6
        c-2.5,2.7-4.6,6.3-6,10.4c-1.4,4.1-2.2,8.7-2.2,13.7c0,5.2,0.8,10.1,2.2,14.2c1.4,4.1,3.3,7.6,5.7,10.4s5.2,4.9,8.5,6.3
        s6.8,2.2,10.4,2.2c2.2,0,4.1,0,5.7-0.3c1.6-0.3,3.3-0.5,4.9-1.1c1.6-0.5,3-1.1,4.4-1.9c1.4-0.8,2.7-1.9,4.1-3
        c0.5-0.5,1.1-0.8,1.9-1.1C72.9,614,73.5,613.7,74.3,613.7z"/>
    <path fill="#3B3B3C" d="M208.6,640.5h-23.8v-43.7h-41.2v43.7h-23.8v-103h23.8v43.1h41.2v-43.1h23.8V640.5L208.6,640.5z"/>
    <path fill="#3B3B3C" d="M273.6,640.5h-23.8v-103h23.8V640.5z"/>
    <path fill="#3B3B3C" d="M380.4,537.3v18.3h-41.8v24h31.9v17.7h-31.9v24.6h41.8v18.3h-65.5V537.3H380.4z"/>
    <path fill="#3B3B3C" d="M439.6,602.3v38.2h-23.5v-103h33c7.4,0,13.7,0.8,18.8,2.2c5.2,1.6,9.6,3.5,12.8,6.3c3.2,2.8,5.7,6,7.1,9.6
        c1.4,3.8,2.2,7.6,2.2,12.3c0,3.3-0.5,6.6-1.4,9.6s-2.2,5.7-3.8,8.2c-1.6,2.5-3.8,4.6-6.6,6.8c-2.5,1.9-5.5,3.5-8.7,4.9
        c1.6,0.8,3,1.9,4.4,3c1.4,1.1,2.5,2.7,3.5,4.4l21.6,35.8h-21.3c-3.8,0-6.8-1.6-8.5-4.6l-16.9-30c-0.8-1.4-1.6-2.2-2.7-2.7
        c-1.1-0.5-2.5-0.8-4.1-0.8L439.6,602.3L439.6,602.3z M439.6,585.9h9.6c3.3,0,6-0.5,8.2-1.4c2.2-0.8,4.1-1.9,5.5-3.5
        c1.4-1.6,2.5-3.3,3.3-5.2c0.5-1.9,1.1-4.1,1.1-6.3c0-4.6-1.4-8.2-4.4-10.6c-3-2.5-7.4-3.8-13.4-3.8h-9.8v30.8H439.6z"/>
    <path fill="#3B3B3C" d="M587.9,558.3c-0.8,1.1-1.4,1.9-2.2,2.5c-0.8,0.5-1.6,0.8-3,0.8c-1.1,0-2.2-0.3-3.5-1.1
        c-1.4-0.8-2.7-1.4-4.1-2.2c-1.6-0.8-3.3-1.6-5.5-2.2c-1.9-0.8-4.4-1.1-6.8-1.1c-4.4,0-7.6,0.8-9.8,2.7c-2.2,1.9-3.3,4.4-3.3,7.6
        c0,2.2,0.5,3.8,1.9,5.2s3,2.5,5.2,3.5c2.2,1.1,4.6,1.9,7.4,2.7c2.8,0.8,5.5,1.6,8.5,2.7c2.7,1.1,5.7,2.2,8.5,3.5
        c2.7,1.4,5.2,3,7.4,5.2s3.8,4.6,5.2,7.6s1.9,6.8,1.9,10.9c0,4.6-0.8,9.3-2.5,13.4c-1.6,4.1-4.1,7.6-7.1,10.9c-3,3-6.8,5.5-11.5,7.4
        c-4.6,1.6-9.6,2.7-15.6,2.7c-3.3,0-6.3-0.3-9.6-1.1c-3.3-0.5-6.6-1.6-9.6-2.7c-3-1.1-6-2.7-8.7-4.4c-2.7-1.6-4.9-3.5-7.1-5.5
        l7.1-11.2c0.5-0.8,1.4-1.6,2.2-2.2c0.8-0.5,1.9-0.8,3-0.8c1.4,0,2.7,0.5,4.1,1.4c1.4,0.8,3,1.9,4.9,3s3.8,2.2,6.3,3
        c2.5,0.8,5.2,1.4,8.2,1.4c4.4,0,7.6-0.8,10.1-2.7c2.5-1.9,3.5-4.9,3.5-9c0-2.5-0.5-4.4-1.9-5.7c-1.4-1.6-3-2.7-5.2-3.8
        c-2.2-1.1-4.6-1.9-7.1-2.7c-2.7-0.8-5.5-1.6-8.2-2.5c-2.7-0.8-5.7-2.2-8.2-3.3c-2.7-1.4-5.2-3-7.1-5.2c-2.2-2.2-3.8-4.9-5.2-8.2
        c-1.4-3.3-1.9-7.4-1.9-12c0-3.8,0.8-7.6,2.2-11.2c1.4-3.5,3.8-6.8,6.8-9.8c3-3,6.6-5.2,10.9-6.8c4.4-1.6,9.3-2.5,14.7-2.5
        c3,0,6.3,0.3,9,0.8c3,0.5,5.7,1.1,8.5,2.2c2.7,1.1,5.2,2.2,7.4,3.5c2.2,1.4,4.4,2.7,6.3,4.6L587.9,558.3z"/>
</g>
</svg>
