<?xml version="1.0" encoding="utf-8"?>
<!-- Generator: Adobe Illustrator 17.1.0, SVG Export Plug-In . SVG Version: 6.00 Build 0)  -->
<!DOCTYPE svg PUBLIC "-//W3C//DTD SVG 1.1//EN" "http://www.w3.org/Graphics/SVG/1.1/DTD/svg11.dtd">
<svg version="1.1" id="Layer_1" xmlns="http://www.w3.org/2000/svg" xmlns:xlink="http://www.w3.org/1999/xlink" x="0px" y="0px"
     viewBox="0 0 296.7 256.1" enable-background="new 0 0 296.7 256.1" xml:space="preserve">
<g>
    <path fill="#FFFFFF" d="M62.8,233.6c-2,0.8-4.1,1.7-6.1,2.4c-4.3,1.5-5,1.2-7.9-2.2c-1.9-2.3-4-4.4-5.8-6.8
        c-1.7-2.3-3.2-4.9-4.8-7.5c-1.3,0.8-2.5,1.5-3.8,2.2c-1.5,0.8-3,0.9-3.9-0.9c-2.1-4-4.4-7.9-6.3-12c-0.4-0.8,0.4-2.6,1.2-3.4
        c3.5-3.7,7.2-7.2,11-10.6c9.3-8.7,19.9-15.5,31.8-20.1c12.6-4.8,25.4-9,38.2-13.3c18.8-6.2,38.2-10.5,57.7-14.2
        c24-4.5,47.5-10.7,70-20c10.6-4.3,20.5-10.2,30.7-15.5c5.3-2.8,10.5-5.8,15.8-8.6c3.6-1.9,7.3-3.7,11-5.4c2.5-1.1,3.9,0,4.1,2.6
        c0.3,3.8,0.9,7.5,1.1,11.3c0.1,1.2-0.4,2.8-1.2,3.5c-2.6,2.1-5.4,3.8-8.3,5.6c-1.4,0.9-1.5,1.5-0.5,2.9c1.3,1.8,1,4-0.1,5.9
        c-2.5,4.3-6.5,7.3-10.4,10.2c-13.5,10.1-28.3,18-42.9,26.2c-13.4,7.5-27.4,13.6-41.5,19.6c-16.8,7.1-34,13.5-50.7,20.7
        c-12.4,5.4-24.6,11.1-36.4,17.6c-12.5,7-24,15.8-33.9,26.3c-1.7,1.8-3.5,3.4-5.4,4.9c-1.8,1.4-3.2,1.2-4.4-0.8
        c-2.3-3.7-4.4-7.6-6.5-11.4c-0.9-1.6-0.3-2.9,1.2-3.9c2.4-1.7,4.8-3.4,7.3-5.1C63,233.8,62.9,233.7,62.8,233.6z M165.4,170.3
        c-0.1-0.2-0.4-0.8-0.8-1.2c-0.7-0.7-1.5-1.3-2.2-1.9c-0.5,0.8-1,1.7-1.4,2.5c-0.1,0.2-0.1,0.5-0.1,0.8c-0.3,4.1-1.5,7.9-3.4,11.5
        c-0.5,0.9-1.3,1.7-2.1,2.2c-1.5,0.8-2.8,0.1-2.8-1.6c0-2.4,0.3-4.9,0.4-7.3c0.1-1.6,0.3-3.2,0-4.7c-0.2-0.9-1.5-1.5-2.4-2.1
        c-0.1-0.1-1.1,0.7-1.2,1.1c-0.6,2.3-1.9,3.6-4.1,4.2c-0.6,0.1-1,0.9-1.4,1.5c-1.8,2.7-3.7,5.4-5.3,8.2c-1.1,1.8-1.7,3.8-2.7,5.6
        c-1,1.9-1.9,4-3.4,5.4c-2.2,2-4.9,3.4-7.5,4.9c-1.1,0.7-2.3,1.1-3.4-0.1c-1.2-1.3-0.5-2.3,0.3-3.5c3.8-5.3,7.6-10.6,11.2-16.1
        c2.9-4.3,4.9-9.1,5.4-14.4c0.1-1.2-0.5-2.8-1.4-3.6c-0.7-0.5-2.3-0.2-3.4,0.2c-0.9,0.3-1.6,1-2.4,1.7c-5,4.5-9,9.8-11.9,15.9
        c-2.4,5.1-3.7,10.2-3.9,15.8c-0.1,3-0.9,5.9-3.3,8c-4.1,3.5-8.2,7.2-12.5,10.5c-2.7,2.2-5.8,3.8-9.5,3.8c-1,0-2.2,0-1.9-1.5
        c0.7-4.1,2.6-7.6,5.8-10c2.2-1.7,5.1-2.5,7.6-3.7c1.3-0.6,2.6-1.3,3.8-2.1c1.5-1.2,1.4-2.4,0.1-3.8c-1.3-1.4-2.9-1.7-4.4-1
        c-2.3,1-4.6,2.1-6.5,3.6c-3,2.3-5.7,4.8-9.6,5.6c-3,0.6-7.2-0.7-9.2-3.6c-1.7-2.4-0.7-4.8,0.6-7.1c3.2-5.8,7.5-10.7,12.8-14.7
        c1.4-1.1,2.9-2.3,4.5-2.8c3.1-1,6.3-1.4,9.5-2.1c1.7-0.4,3-1.2,3-3.1c0-1.9-1.2-3.4-3.1-3.6c-1.5-0.1-3.1-0.2-4.6,0.2
        c-11,3-18.8,9.9-24.2,19.7c-1,1.8-2.1,3.6-2.9,5.5c-1.2,2.7-1.5,5.5,0.1,8.2c3.1,5,7.3,8.3,13.6,8.4c-0.4,1.2-0.8,2.4-1.3,3.4
        c-2.9,6.2,3.5,10.3,7.9,9.3c2.6-0.6,5.3-1.6,7.4-3.2c6.3-4.7,12.5-9.6,16.7-16.4c0.3-0.4,0.4-0.9,0.6-1.3c0.3,0,0.6,0,0.9,0
        c0.6,0.8,1.1,1.7,1.8,2.3c2,1.7,4,1.9,5.9,0.4c2.9-2.3,5.7-4.6,8.5-6.9c0.3-0.2,0.5-0.5,0.7-0.8c0.7-0.9,1.3-1.8,1.9-2.6
        c1.6,1.2,2.8,2.3,4.1,3c0.6,0.3,2,0.3,2.4-0.1c1.6-1.6,2.9-3.3,4.2-5.1c0.9-1.3,1.6-2.8,2.5-4.3c1,0.6,1.7,1.1,2.4,1.5
        c1.3,0.7,2.6,0.8,3.8-0.5c0.9-1,2-2,2.8-3.1c0.9-1.2,1.6-2.7,2.5-4.1c0.3,1.6,0.3,3,0.8,4.3c0.3,0.7,1.2,1.7,1.8,1.7
        c0.8-0.1,1.8-0.9,2-1.7c0.6-1.9,0.8-3.9,1.1-5.9c0.3-3,1.4-5.5,4.5-7.7c-0.1,1.2-0.3,1.8-0.3,2.5c-0.2,3.3,0.4,6.3,3.4,8.2
        c0.6,0.4,2,0.7,2.4,0.3c1.8-1.8,3.5-3.7,5.1-5.7c1.6-2.1,3-4.5,4.5-6.7c0.4,0.7,0.4,1.1,0.4,1.5c-0.2,2.1,0.7,3.9,2.3,4.2
        c2,0.4,2.5-1.4,3.1-2.7c0.8-1.6,1.5-3.3,2.5-5.4c0.5,1.3,0.7,2.1,1.1,2.8c0.6,1.3,2.7,2.1,3.7,1.4c1.9-1.3,3.9-2.6,5.6-4.1
        c1.3-1.2,2.3-2.9,3.3-4.4c0.5-0.6,0.8-1.3,1.3-2c0.7,0.4,1.4,0.7,1.9,1.3c1.4,1.4,2.8,1.8,4.6,0.6c0.8-0.6,1.9-0.8,2.8-1.3
        c0.8-0.5,1.5-1.1,2-1.9c1.5-2.4,3-4.9,4.5-7.5c0.7,1,1.1,1.8,1.7,2.5c1.3,1.5,3,1.6,4.1,0.1c1.6-2.1,3.2-4.2,4.1-6.6
        c0.9-2.3,2.7-3.3,4-4.8c1.5,2.2,2.8,4.2,4.2,6.1c0.4,0.5,1.3,1,1.9,0.9c3.1-0.5,6.5-3.9,7.3-7.1c-1,0.8-1.8,1.5-2.7,2.1
        c-2,1.3-3.8,0.6-4.5-1.6c-0.4-1.5-0.5-3.2-0.8-4.8c-0.6-3-2.8-3.8-5.1-1.7c-1.5,1.3-2.8,2.8-4.2,4.1c-1.7,1.6-3.6,3.1-5.3,4.7
        c0-0.8,0.3-2.1-0.1-3c-0.5-1.3-1.4-2.9-2.5-3.4c-1.4-0.6-2.7,0.7-3.1,2.3c-0.6,2.1-1.1,4.2-1.5,6.3c-0.7,4-2.4,7.4-5.7,9.9
        c-0.6,0.5-1.6,0.4-2.5,0.6c-0.1-0.9-0.4-1.8-0.3-2.7c0.1-1.2,0.7-2.5,0.5-3.6c-0.3-1.2-1.1-2.5-2.1-3.2c-0.3-0.2-2.2,0.7-2.6,1.5
        c-1,1.9-1.8,3.9-2.3,6c-1,4.1-3.3,7.2-6.8,9.3c-0.7,0.4-1.8,0.2-2.7,0.3c0.4-0.8,0.6-1.8,1.1-2.4c1.1-1.2,2.4-2.2,3.5-3.3
        c1.4-1.4,1.3-4.1-0.1-5.2c-1-0.8-3-0.3-4.2,1.2c-0.4,0.4-0.7,0.9-1,1.4c-1.4,2-2.8,4-4.2,5.9c0.1-2.4,0.3-4.7,0.8-7
        c0.5-2.7,0.8-5.4-0.6-7.9c-0.6-1.2-1.4-2.2-2.9-1.9c-1.5,0.3-1.9,1.4-1.9,2.8c0,1.5,0.1,3-0.1,4.4c-0.9,6.2-3.5,11.7-6.8,16.9
        c-1.6,2.4-3.5,4.6-6.6,6.2c0.2-2.3,0.4-4,0.4-5.8c0-2,0-4-0.5-5.9c-0.5-1.9-2.4-2.6-4-1.4C169,166.6,167.3,168.5,165.4,170.3z
         M217,142.6c-0.4-1.8-1.7-3.4-2.9-3.4c-1.4,0-3.4,1.3-3.4,2.4c0,1.7,2.3,4.6,3.7,4C215.5,145.2,216.2,143.7,217,142.6z"/>
    <path fill="#FFFFFF" d="M29.9,83.7c-4.6,0.6-8.8,1.2-13.1,1.5c-4.5,0.4-9,0.5-13.6,0.7c-1.9,0.1-3.1-0.8-3.1-2.8
        C0.1,77.9,0,72.8,0,67.8c0-2,1.3-3.2,3.7-3.5c5.7-0.8,11.5-1.4,17.2-2.2c2.9-0.4,5.8-0.8,9.1-1.3c-0.3-6.3-0.6-12.5-0.9-18.6
        c-0.1-1.9-0.5-3.9-0.6-5.8c-0.1-2.8,0.6-3.9,3.3-4.5c4.6-1,9.3-1.7,14-2.5c2-0.4,3.3,0.5,3.6,2.5c0.9,5.8,1.7,11.5,2.5,17.3
        c0.2,1.8,0,3.6,0,5.8c3.4-1,6.7-1.8,9.9-2.8c4.4-1.3,8.8-2.6,13.2-3.8c4.1-1.1,5.9,0.2,5.8,4.4c-0.1,4.9-0.5,9.9-0.7,14.8
        c-0.1,1.8-0.9,2.6-2.5,3.1c-7.4,2.3-14.9,4.6-22.3,6.8c-2,0.6-3,2-2.9,4c0.2,13.6,0.5,27.2,0.8,40.8c0.2,8,0.5,15.9,0.6,23.8
        c0.1,4.8-0.1,9.6-0.1,14.4c0,1.4-0.8,2.2-2.1,2.4c-4.9,0.8-9.9,1.7-14.8,2.3c-3,0.4-4.3-0.8-4.4-3.9c-0.2-5.4-0.3-10.9-0.5-16.3
        c-0.5-18.8-1.1-37.5-1.6-56.3C30.1,87.3,30,85.7,29.9,83.7z"/>
    <path fill="#FFFFFF" d="M144.8,106.2c-1.9,1.3-3.7,2.5-5.5,3.8c0.1,0.5,0.5,1.1,0.5,1.7c0.1,3.4-0.5,4-4,3.9c-3.3-0.1-6.7,0-10-0.1
        c-2.4-0.1-4.5-0.9-6.1-2.8c-1.4-1.6-2.8-3.1-4.6-5c-0.1,1.6-0.3,2.6-0.3,3.6c-0.3,6.2-0.6,12.4-0.8,18.6c-0.1,2.6-1.2,4.7-3.6,5.9
        c-2.8,1.4-5.6,3-8.5,4.4c-1.7,0.8-3.2,0.2-3.7-1.7c-0.4-1.5-0.6-3.2-0.5-4.7c0.2-11.8,0.6-23.7,0.8-35.5c0.1-2.4-0.4-4.9-0.3-7.3
        c0.1-4.3,0.4-4.7,5-5.8c2.2-0.5,4.4-0.6,6.7-0.5c2.8,0.1,5.4,1.2,7.4,3.3c4.2,4.4,8.5,8.9,13.1,13.8c2-3.4,4.1-6.3,5.6-9.5
        c1.7-3.6,3.6-6.3,8.4-5.8c-0.4-2.3-0.8-4.5-1-6.7c-0.1-1.3-0.2-2.7,0.2-3.9c0.2-0.7,1.3-1.6,2-1.7c4.2-0.2,8.5-0.3,12.7-0.1
        c0.8,0,2,1.2,2.2,2c0.9,3.4,1.8,6.9,2.1,10.4c0.7,10.7,1.3,21.4,1.7,32.1c0.1,3.5-0.6,7-1.1,10.6c-0.3,2.3-1.9,3.4-4.1,3.9
        c-3.2,0.7-6.5,1.4-9.7,2.1c-3,0.6-3.9-0.2-3.6-3.1C146.2,123.6,145.9,115,144.8,106.2z"/>
    <path fill="#FFFFFF" d="M268.6,73.6c0.2,0.2,0.2,0.4,0.4,0.4c6.7,2.2,9.3,7.5,10.8,13.7c0.5,2.1,0.8,4.2,1.3,6.3
        c0.3,1.7-0.3,2.8-2.1,2.9c-4.2,0.1-8.3,0.3-12.5,0.1c-0.9,0-1.9-1.6-2.4-2.7c-1.2-2.6-2-5.5-3.2-8.1c-1.9-4-8.3-6.4-12.4-4.7
        c-0.5,0.2-0.8,1.2-0.9,1.8c-0.5,5.9-0.7,11.8-1.3,17.7c-0.3,3.2-1.4,6.4-5,7.2c-3.6,0.7-7.3,0.8-11,1.2c-1.3,0.1-1.5-0.9-1.4-1.8
        c0.1-2.7,0.4-5.4,0.4-8.1c0.1-13,0.3-26.1,0.3-39.1c0-2.6-0.7-5.1-0.7-7.7c0-0.9,0.9-2.6,1.7-2.7c3.9-0.7,7.9-1.1,11.9-1.6
        c5.1,2.9,10.3,0.8,15.5,0.4c4.9-0.4,9.5,0,14.1,1.9c6.4,2.7,7.6,11.7,3.4,15.8C273,68.7,270.9,71.1,268.6,73.6z M247.2,73.1
        c5.9-2.4,10.1-5.5,12.6-10.6c0.4-0.9,0.2-2.8-0.5-3.3c-2.7-2.2-5.8-3.5-9.5-2.7c-1.8,0.4-2.6,1.4-2.6,3.2
        C247.3,63.9,247.2,68.2,247.2,73.1z"/>
    <path fill="#FFFFFF" d="M110.1,33c-1.5,0.7-2.4,1-3.2,1.5c-2.1,1.1-4.5,0.5-5.8-1.5c-1-1.6-0.4-3.9,1.5-5.2c1.6-1,3.3-1.8,4.8-2.9
        c0.7-0.5,1.4-1.6,1.4-2.4c-0.1-4.1-0.5-8.2-0.6-12.3c0-1.8,0.2-3.6,0.9-5.3c0.3-0.8,1.7-1.4,2.7-1.5c3-0.3,6-0.5,9-0.5
        c2.4,0,3.6,1,4,3.4c0.5,3.7,1,7.5,1.2,11.2c0.1,1.9,0.8,2.3,2.4,2.1c4.8-0.7,9.5-0.1,14.3,0.8c10.7,2,13.8,10,11.6,19.3
        c-1,4.3-3.3,7.4-7.4,9.2c-5.7,2.4-11.4,4.8-17.1,7.1c-1.7,0.7-2.5,1.4-2.5,3.3c0,3.2-0.5,3.4-3.4,4.2c-1.6,0.4-3.1,1.5-4.6,2.2
        c-1.7,0.8-3.4,1.7-5.1,2.1c-1.9,0.4-2.7-1.2-3-2.8c-0.3-1.5-0.1-3.1-0.2-4.6C110.6,51.5,110.4,42.5,110.1,33z M127.1,29.6
        c0.3,6.8,0.6,12.9,0.9,19.1c7-2,10.3-8.4,8-14.9c-0.2-0.6-0.6-1.3-1.1-1.4C132.6,31.4,130.1,30.6,127.1,29.6z"/>
    <path fill="#FFFFFF" d="M198.5,99.9c2.4-4.3,3.4-9.1,3.9-13.9c0.5-4.7,0.8-9.4,1.2-14.1c0.2-2.2,1.7-3.6,3.7-3.9
        c3.7-0.6,7.4-0.9,11.1-1.3c1.5-0.2,2,0.7,1.9,2.1c-0.3,5.5-0.6,11-1,16.5c-0.6,8.5-4.5,15.9-8.9,22.9c-1,1.5-2.6,2.8-4.2,3.7
        c-3.4,1.8-7.1,3.2-10.6,4.8c-3.1,1.4-6,1-8.6-1.1c-2.5-2-4.6-4.3-5.6-7.4c-1.4-4.2-2.5-8.5-3.9-12.7c-2.4-7.4-5-14.7-7.5-22.1
        c-0.1-0.3-0.3-0.6-0.4-1c-1.6-4.1-0.8-5.9,3.4-6.8c3.1-0.6,6.2-0.7,9.3-1.1c2.2-0.2,3.4,0.9,4.4,2.8c4.4,8.1,6.8,16.9,9,25.7
        c0.6,2.4,1.4,4.7,2,7C198,100.1,198.2,100,198.5,99.9z"/>
    <path fill="#FFFFFF" d="M182.2,29.8c-2.9,1.4-5.4,2.5-7.8,3.8c-2.5,1.3-4.7,1.1-7.1-0.5c-6.7-4.4-10.4-10.7-11.4-18.6
        c-0.3-2.6-0.8-5.1-1-7.7c-0.3-3.7,0.7-5.2,4.3-5.8c2.8-0.5,5.6-0.8,8.5-1.1c1.9-0.2,2.9,0.7,3.3,2.7c0.7,3.6,1.5,7.2,2.5,10.8
        c0.8,3,2.3,5.6,4.9,8c0.7-0.8,1.4-1.4,1.8-2.2c1.2-2.3,2.3-4.6,3.2-7c0.5-1.2,0.4-2.7,0.7-4c0.3-1.4,1.1-2.3,2.5-2.4
        c3.9-0.3,7.9-0.5,11.8-0.6c1.4-0.1,2.5,0.7,2.6,2.2c0.2,3.7,0.5,7.4,0.4,11c-0.1,3.8-0.6,7.7-1.2,11.4c-1.4,9.1-6,15.9-14.9,19.3
        c-4.6,1.7-9.3,3.3-14,4.5c-1.5,0.4-3.4-0.1-5.1-0.5c-0.7-0.2-1.8-1-1.8-1.7c-0.1-0.7,0.7-1.6,1.4-2.1c1.4-0.9,2.9-1.6,4.4-2.3
        C177.4,43.7,181,38,182.2,29.8z"/>
    <path fill="#FFFFFF" d="M86.8,123.3c-0.5,8.9-2.2,17.5-4.2,26c-1,4.2-2.8,6.6-6.7,7.9c-2.4,0.8-4.6,2-7,2.6
        c-0.9,0.2-2.4-0.2-3.1-0.9c-1.8-1.8-2-4.2-1.5-6.6c1-4.6,2.3-9.1,2.8-13.7c0.7-6.4,0.6-12.9,0.9-19.4c0.1-2.4,0-4.9,0.3-7.3
        c0.1-0.6,1.1-1.6,1.7-1.7c4-0.7,8-1.2,12-1.8c1.5-0.2,2.4,0.4,2.7,1.9C85.4,114.7,86.1,119,86.8,123.3z"/>
    <path fill="#FFFFFF" d="M74,91.9c-5.7,1.5-8.3-1.5-10.3-5.6c2-3.5,5.2-4.6,9.1-4.4c3.9,0.2,7.9,0.1,11.8,0.6
        c2.4,0.3,2.5,0.9,1.7,3.2c-0.2,0.5-0.2,1.1-0.1,1.6c0.8,3.3-0.6,5.5-3.2,7.2c-0.4,0.3-0.7,0.6-1.3,1c0.6,0.2,1.1,0.3,1.3,0.6
        c0.6,0.8,1.3,1.7,1.4,2.6c0,0.4-1.3,1.2-2.1,1.3c-3.4,0.4-6.9,0.8-10.4,0.7c-1.1,0-2.3-1.4-3.3-2.4c-0.2-0.2,0.6-1.5,1.1-2.1
        C70.9,95,72.2,93.7,74,91.9z"/>
    <path fill="#FFFFFF" d="M213.4,22.9c1.6-0.2,3.1-0.5,4.7-0.5c7.6-0.1,15.2-0.1,22.8-0.2c1.6,0,3.5,0.4,3.5,2.1
        c0,0.9-2.1,2.3-3.4,2.4c-8.4,1-16.8,0.4-25-1.8c-1-0.3-1.8-1-2.7-1.5C213.3,23.3,213.4,23.1,213.4,22.9z"/>
    <path fill="#FFFFFF" d="M64.2,25.7c3.9,0,7.8,0,11.6,0c3,0,6,0.2,9,0.3c0.6,0,1.2-0.2,1.7,0.1c0.9,0.5,1.8,1.3,2.6,2
        c-0.8,0.7-1.5,1.7-2.4,1.9c-1.7,0.4-3.5,0.3-5.2,0.5c-3.1,0.3-6.2,0.6-9.3,1C67.2,32.2,65.2,30.7,64.2,25.7z"/>
    <path fill="#FFFFFF" d="M212.7,39.4c1.8,0.3,3.9,0.8,6.4,1.2c-3.4,5-7,9.1-11.9,11.6C208.9,48.1,210.7,43.9,212.7,39.4z"/>
    <path fill="#FFFFFF" d="M125.7,140.2c0.8-4,1.6-7.4,2.3-10.8c1.9-0.6,2.8,0.2,3,1.9c0.2,1.7,0.2,3.3,0.5,5c0.3,1.9-0.4,2.9-2.2,3.2
        C128.4,139.6,127.4,139.8,125.7,140.2z"/>
    <path fill="#FFFFFF" d="M178,126.3c1.7,1.3,3.1,2.3,5,3.7c-2.2,0.4-3.8,0.7-6,1.1C177.4,129.4,177.7,128,178,126.3z"/>
    <path fill="#FFFFFF" d="M120.3,191.7c1.8-8.6,5.2-16.3,12-22.1C130.5,178,127.1,185.8,120.3,191.7z"/>
    <path fill="#FFFFFF" d="M140.3,192.5c0.1-5.4,2.1-9.9,6.9-12.9C147.3,183.6,143.8,192.3,140.3,192.5z"/>
</g>
</svg>
