<?xml version="1.0" encoding="utf-8"?>
<!-- Generator: Adobe Illustrator 17.1.0, SVG Export Plug-In . SVG Version: 6.00 Build 0)  -->
<!DOCTYPE svg PUBLIC "-//W3C//DTD SVG 1.1//EN" "http://www.w3.org/Graphics/SVG/1.1/DTD/svg11.dtd">
<svg version="1.1" id="Layer_1" xmlns="http://www.w3.org/2000/svg" xmlns:xlink="http://www.w3.org/1999/xlink" x="0px" y="0px"
     viewBox="0 0 124.6 124.9" enable-background="new 0 0 124.6 124.9" xml:space="preserve">
<path fill="#4396C9" d="M358.5,270.8c0.4-0.3,0.9-0.6,1.6-0.7c0.6-0.2,1.1-0.2,1.6-0.2h0.6c0.4,0,0.9,0,1.5,0.1c0.9,0,1.6,0.1,2,0.1
    c0.2,0,1,0,2.4-0.1c0.7,0,1.3,0,1.8,0c0.5,0,1,0,1.4,0c0.8,0.1,1.5,0.2,2,0.5c0.2,0.1,0.5,0.4,0.8,0.8s0.5,0.8,0.7,1.2
    c0.2,0.4,0.4,0.9,0.7,1.6s0.5,1.1,0.6,1.3c1.6,3.4,3.5,6.8,5.9,10.2c0.1,0.1,0.2,0.4,0.4,0.7c0.2,0.3,0.4,0.6,0.5,0.8
    c0.1,0.2,0.3,0.4,0.6,0.7s0.4,0.5,0.7,0.7s0.4,0.3,0.7,0.5c0.2,0.2,0.5,0.3,0.7,0.3c0.2,0,0.5,0,0.7,0c1.2-0.2,1.8-2.6,1.9-7.3
    c0-0.8,0.1-1.5,0.1-2.2c0-3.1-0.3-5.2-0.9-6.4c-0.2-0.5-0.6-0.8-1-1.1s-0.9-0.5-1.5-0.7s-1.1-0.4-1.4-0.7c0.6-1.2,1.6-1.9,3.1-2.3
    s3.5-0.6,6-0.6h3.3c0,0,0.5,0,1.6,0c1.1,0,1.6,0.1,1.7,0.2l1.4,0.3c0,0,0.4,0.2,1.2,0.6c0.8,0.4,1.1,0.7,0.8,0.9
    c0.4,0.7,0.6,1.6,0.7,2.6c0,0.3,0,0.6,0.1,0.9c0,0.8-0.1,1.9-0.2,3.2c-0.2,1.7-0.2,2.8-0.2,3.2c-0.1,1-0.2,1.9-0.2,2.9
    c0,0.7,0,1.5,0.1,2.4c0.2,1.8,0.8,3.1,1.9,3.8c0.4,0,0.7-0.1,1-0.2s0.6-0.4,1-0.7c0.3-0.3,0.6-0.6,0.7-0.7c0.1-0.1,0.4-0.5,0.8-1
    s0.6-0.8,0.7-0.9c2-2.6,3.9-6,5.9-10.2l0.6-1.4c0,0,0.2-0.5,0.7-1.7c0.5-1.1,0.7-1.5,0.7-1.2c0,0.3,0.3,0,1-0.8
    c0.7-0.3,1.5-0.4,2.4-0.4h0.6c0.8,0,1.8,0,2.9,0.1c1.3,0.1,2.3,0.1,2.9,0.1c0.4,0,0.9,0,1.7-0.1c0.8,0,1.4-0.1,2-0.1
    c0.6,0,1.2,0,1.8,0c0.6,0,1.2,0.2,1.6,0.4s0.7,0.5,0.9,0.8c0.1,0.2,0.2,0.5,0.2,0.8c0,1.2-0.7,3-2.2,5.4c-0.7,1.2-1.4,2.3-2.2,3.3
    c-0.7,1-1.7,2.2-2.8,3.6s-1.9,2.4-2.3,2.9c-0.1,0.1-0.4,0.5-0.9,1.1s-0.9,1.2-1.1,1.5s-0.5,0.8-0.7,1.4c-0.2,0.6-0.4,1.2-0.3,1.7
    c0,0.3,0.1,0.6,0.2,0.9c0.1,0.3,0.3,0.6,0.6,0.9c0.3,0.3,0.5,0.6,0.6,0.7c0.1,0.2,0.4,0.4,0.8,0.8c0.4,0.4,0.7,0.6,0.7,0.7
    c3,2.7,5.3,5.1,7,7.3c1.7,2.2,2.5,3.7,2.5,4.7c0,1.4-1.1,2.2-3.2,2.6c-1.1,0.2-2.2,0.2-3.3,0.2c-0.9,0-1.8-0.1-2.7-0.2
    c-0.8-0.1-1.6-0.1-2.3-0.1c-1.1,0-2,0.1-2.8,0.3h-0.4c-2.7-0.5-5.6-2.4-8.7-5.9c-0.2-0.2-0.5-0.6-1.1-1.3c-0.5-0.7-1-1.2-1.4-1.6
    s-0.9-0.7-1.4-1.1s-1.1-0.5-1.7-0.4c-1,0.2-1.6,0.8-1.9,1.8c-0.3,1-0.5,2.3-0.6,3.7s-0.3,2.4-0.6,3c-0.5,1-2.2,1.5-4.9,1.5
    c-1.2,0-2.5-0.1-4.1-0.2c-3.2-0.3-6.2-1.2-8.8-2.5c-2.6-1.3-4.7-2.7-6.3-4.2c-1.5-1.5-3.2-3.4-5.1-5.8c-4.3-5.5-8.4-12.2-12.3-20.1
    c-0.1-0.2-0.4-0.7-0.7-1.4c-0.3-0.7-0.6-1.2-0.7-1.6s-0.4-0.9-0.6-1.5c-0.2-0.6-0.4-1.2-0.5-1.7
    C358.5,271.9,358.5,271.3,358.5,270.8z"/>
<path fill="#FFFFFF" d="M254.9,273.1c-2,0.9-4.1,1.5-6.3,1.7c2.3-1.4,4-3.5,4.9-6.1c-2.1,1.3-4.5,2.2-7,2.7c-2-2.2-4.9-3.5-8.1-3.5
    c-6.1,0-11,4.9-11,11c0,0.9,0.1,1.7,0.3,2.5c-9.2-0.5-17.3-4.9-22.8-11.6c-0.9,1.6-1.5,3.5-1.5,5.6c0,3.8,1.9,7.2,4.9,9.2
    c-1.8,0-3.5-0.5-5-1.4c0,0,0,0.1,0,0.1c0,5.4,3.8,9.8,8.9,10.8c-0.9,0.3-1.9,0.4-2.9,0.4c-0.7,0-1.4-0.1-2.1-0.2
    c1.4,4.4,5.5,7.6,10.3,7.7c-3.8,3-8.5,4.7-13.7,4.7c-0.9,0-1.8-0.1-2.6-0.2c4.9,3.2,10.7,5,16.9,5c20.3,0,31.4-16.8,31.4-31.4
    c0-0.5,0-1,0-1.4C251.5,277.3,253.4,275.4,254.9,273.1z M248.3,277.4l-0.8,0.6l0,1c0,0.4,0,0.9,0,1.3c0,3.4-0.7,7-1.9,10.4
    c-1.3,3.6-3.2,6.8-5.7,9.6c-2.6,3-5.7,5.3-9.2,6.9c-3.9,1.8-8.1,2.7-12.7,2.7c-3.3,0-6.5-0.5-9.6-1.6c1.1-0.2,2.2-0.5,3.3-0.9
    c2.5-0.9,4.8-2.1,6.9-3.8l4-3.2l-5.1-0.1c-3-0.1-5.7-1.5-7.3-3.9c0.8-0.1,1.7-0.2,2.5-0.4l6.9-2.3l-7-1.2c-3.4-0.7-6-3.2-7-6.4
    c0.9,0.2,1.8,0.3,2.7,0.4c0,0,3.6,0.2,6.4,0c-1.5-0.7-5.3-3.3-5.3-3.3c-2.6-1.7-4.1-4.6-4.1-7.7c0-0.7,0.1-1.5,0.3-2.2
    c2.5,2.6,5.4,4.7,8.6,6.3c4.2,2.2,8.8,3.4,13.5,3.6l2.4,0.1l-0.5-2.4c-0.2-0.7-0.2-1.4-0.2-2.1c0-5.1,4.1-9.2,9.2-9.2
    c2.5,0,5,1.1,6.7,2.9l0.7,0.7l1-0.2c0.5-0.1,1-0.2,1.5-0.4c-0.1,0.2-0.6,0.7-1.3,1.2c-0.5,0.5-2,1.9-2,1.9s1.5,0.5,2.4,0.6
    c0.9,0.1,2-0.1,2.2-0.1C249.2,276.7,248.7,277.1,248.3,277.4z"/>
<path fill="#231F20" d="M114.4,273.4c0-3-2.4-5.4-5.4-5.4H76.1c-3,0-5.4,2.4-5.4,5.4v32.9c0,3,2.4,5.4,5.4,5.4H109
    c3,0,5.4-2.4,5.4-5.4V273.4z M92.6,280.7c5,0,9.1,4.1,9.1,9.1s-4.1,9.1-9.1,9.1s-9.1-4.1-9.1-9.1S87.6,280.7,92.6,280.7z
     M110.8,278.9c0,1-0.8,1.8-1.8,1.8h-5.5c-1,0-1.8-0.8-1.8-1.8v-5.5c0-1,0.8-1.8,1.8-1.8h5.5c1,0,1.8,0.8,1.8,1.8V278.9z M109.1,308
    H76.3c-1,0-1.9-0.9-1.9-1.9v-19.9h6c-0.3,1.1-0.5,2.3-0.5,3.6c0,3.4,1.3,6.6,3.7,9c2.4,2.4,5.6,3.7,9,3.7s6.6-1.3,9-3.7
    c2.4-2.4,3.7-5.6,3.7-9c0-1.2-0.2-2.5-0.5-3.6h5.9v19.9C110.8,307.1,110.1,308,109.1,308z"/>
<g>
    <path fill="#EF4136" d="M287.8,270.1c1.3,1.1,4.1,3.4,4.1,7.7c0,4.2-2.4,6.2-4.9,8.1c-0.8,0.7-1.6,1.5-1.6,2.8s0.9,1.9,1.5,2.5
        l2.1,1.6c2.6,2.1,4.9,4.1,4.9,8c0,5.4-5.3,10.8-15.3,10.8c-8.4,0-12.5-3.9-12.5-8.2c0-2.1,1-5,4.5-7c3.6-2.2,8.5-2.5,11.1-2.6
        c-0.8-1-1.7-2.1-1.7-3.9c0-1,0.3-1.5,0.6-2.2c-0.6,0.1-1.3,0.1-1.9,0.1c-6.2,0-9.7-4.5-9.7-9c0-2.6,1.2-5.5,3.7-7.6
        c3.3-2.7,7.3-3.1,10.4-3.1h12l-3.7,2.1H287.8z M283.7,295.5c-0.5-0.1-0.8-0.1-1.3-0.1c-0.5,0-3.7,0.1-6.1,0.9c-1.3,0.5-5,1.8-5,5.9
        c0,4.1,4,7,10.2,7c5.6,0,8.5-2.6,8.5-6.2C290,300.1,288.1,298.6,283.7,295.5 M285.4,284.6c1.3-1.3,1.5-3.1,1.5-4.2
        c0-4.1-2.5-10.5-7.3-10.5c-1.5,0-3.1,0.7-4.1,1.9c-1,1.2-1.3,2.7-1.3,4.2c0,3.8,2.3,10.2,7.3,10.2
        C282.8,286.2,284.4,285.5,285.4,284.6"/>
    <polygon fill="#EF4136" points="316.9,276.9 308,276.9 308,268.1 306,268.1 306,276.9 297,276.9 297,279 306,279 306,288.1 
        308,288.1 308,279 316.9,279     "/>
</g>
<path fill="#2D439B" d="M337.1,282.6v-4.3c0-2,0.4-2.9,3.5-2.9h3.8V268H338c-7.8,0-10.4,3.6-10.4,9.7v4.9h-5.1v7.3h5.1v21.8h9.4
    v-21.8h6.4l0.9-7.3H337.1z M341.9,288h-4.7h-1.9v1.8v20.1h-5.8v-20.1V288h-1.7h-3.4v-3.6h3.4h1.7v-1.9v-4.8c0-2.8,0.6-4.7,1.8-5.9
    c1.3-1.4,3.5-2,6.8-2h4.5v3.6h-2c-1.4,0-3.1,0.1-4.2,1.3c-0.9,1-1.1,2.3-1.1,3.4v4.3v1.9h1.9h5.1L341.9,288z"/>
<path fill="#BE1E2D" d="M27.5,268.1c-12,0-21.8,9.7-21.8,21.8s9.7,21.8,21.8,21.8s21.8-9.7,21.8-21.8S39.5,268.1,27.5,268.1z
     M40.7,303c-3.5,3.5-8.2,5.5-13.2,5.5c-1.6,0-3.1-0.2-4.6-0.6c0.3-0.6,0.5-1.2,0.7-1.9c0.3-1,1.5-6,1.5-6c0.8,1.4,3,2.7,5.3,2.7
    c7,0,11.7-6.4,11.7-14.9c0-6.4-5.5-12.5-13.8-12.5c-10.3,0-15.6,7.4-15.6,13.6c0,3.7,1.4,7.1,4.5,8.3c0.5,0.2,0.9,0,1.1-0.5
    c0.1-0.4,0.3-1.4,0.4-1.7c0.1-0.5,0.1-0.7-0.3-1.2c-0.9-1-1.4-2.4-1.4-4.3c0-5.5,4.1-10.4,10.7-10.4c5.8,0,9.1,3.6,9.1,8.3
    c0,6.3-2.8,11.6-6.9,11.6c-2.3,0-4-1.9-3.4-4.2c0.7-2.8,1.9-5.7,1.9-7.7c0-1.8-1-3.3-2.9-3.3c-2.3,0-4.2,2.4-4.2,5.6
    c0,2,0.7,3.4,0.7,3.4s-2.4,10.1-2.8,11.9c-0.1,0.5-0.2,1.1-0.3,1.6c-1.7-0.9-3.2-2-4.6-3.4c-3.5-3.5-5.5-8.2-5.5-13.2
    s1.9-9.7,5.5-13.2c3.5-3.5,8.2-5.5,13.2-5.5s9.7,1.9,13.2,5.5c3.5,3.5,5.5,8.2,5.5,13.2S44.2,299.5,40.7,303z"/>
<path fill="#F16F93" d="M469.7,267.9c-12.1,0-21.8,9.8-21.8,21.8c0,12.1,9.8,21.8,21.8,21.8s21.8-9.8,21.8-21.8
    C491.5,277.7,481.7,267.9,469.7,267.9z M483.5,278c2.5,2.9,4,6.6,4.3,10.6c-3.9-0.2-8.6-0.2-12.4,0.1c-0.5-1.2-1-2.4-1.5-3.5
    C478.2,283.3,481.6,280.8,483.5,278z M469.7,271.6c4.4,0,8.5,1.6,11.6,4.2c-2,2.5-5.1,4.7-9,6.3c-2.1-3.9-4.5-7.3-7.1-9.9
    C466.6,271.8,468.1,271.6,469.7,271.6z M461.4,273.6c2.6,2.6,5.1,5.9,7.3,9.8c-4.1,1.3-8.8,2-13.8,2c-1,0-1.9,0-2.8-0.1
    C453.3,280.2,456.8,275.9,461.4,273.6z M451.5,288.9c1,0,2.1,0.1,3.1,0.1c5.7-0.1,11.1-1,15.6-2.4c0.4,0.9,0.8,1.8,1.2,2.8
    c-0.6,0.1-1.2,0.3-1.6,0.5c-6.3,2.6-11.2,6.9-13.9,12c-2.8-3.2-4.5-7.4-4.5-12C451.5,289.5,451.5,289.2,451.5,288.9z M469.7,308
    c-4.2,0-8.1-1.4-11.2-3.8c2.4-4.8,6.7-8.8,12.2-11.2c0.5-0.2,1.2-0.4,2-0.6c0.6,1.8,1.2,3.7,1.7,5.6c0.8,3,1.3,6,1.7,8.9
    C474.1,307.5,471.9,308,469.7,308z M479.5,305.1c-0.3-2.9-0.9-5.9-1.7-9c-0.4-1.5-0.8-2.9-1.3-4.3c3.6-0.3,7.8-0.3,11.2,0
    C487.1,297.4,484,302.2,479.5,305.1z"/>
<path fill="#40C7F4" d="M186.8,273.2c-2,0.9-4.1,1.5-6.3,1.7c2.3-1.4,4-3.5,4.8-6.1c-2.1,1.3-4.5,2.2-7,2.7c-2-2.1-4.9-3.5-8-3.5
    c-6.1,0-11,4.9-11,11c0,0.9,0.1,1.7,0.3,2.5c-9.1-0.5-17.2-4.8-22.6-11.5c-0.9,1.6-1.5,3.5-1.5,5.5c0,3.8,2,7.2,4.9,9.2
    c-1.8,0-3.5-0.5-5-1.4c0,0,0,0.1,0,0.1c0,5.3,3.8,9.8,8.8,10.8c-0.9,0.2-1.9,0.4-2.9,0.4c-0.7,0-1.4-0.1-2.1-0.2
    c1.4,4.4,5.5,7.5,10.3,7.6c-3.8,2.9-8.5,4.7-13.6,4.7c-0.9,0-1.8-0.1-2.6-0.2c4.8,3.2,10.6,5,16.8,5c20.2,0,31.3-16.8,31.3-31.3
    c0-0.5,0-1,0-1.4C183.5,277.4,185.3,275.4,186.8,273.2z"/>
<g>
    <circle fill="#EF477C" cx="105.3" cy="244.6" r="10.8"/>
    <circle fill="#365EAB" cx="83.3" cy="244.6" r="10.8"/>
</g>
<g>
    <path fill="#FFFFFF" d="M-166,301.6h-26.4v-19h6.1c0,0,1.5-2.1,4.5-4h-12.6c-1.1,0-2,0.9-2,2v23c0,1.1,0.9,2,2,2h30.4
        c1.1,0,2-0.9,2-2v-11.5l-4.1,3.3V301.6z M-169.4,285.3v6.8l13.5-10.1l-13.5-10.2v6.3c-16.4,0-16.9,17.4-16.9,17.4
        C-181.7,287.9-178.3,285.3-169.4,285.3z"/>
</g>
<g id="Icon_1_">
    <g>
        <polygon fill="#FFFFFF" points="-210.6,275.2 -213.9,271.8 -227.3,285.2 -240.7,271.8 -244,275.2 -230.6,288.5 -244,301.9 
            -240.7,305.3 -227.3,291.9 -213.9,305.3 -210.6,301.9 -223.9,288.5         "/>
    </g>
</g>
<g>
    <path fill="#FFFFFF" d="M-122.4,295.4c-0.2,0.2-0.5,0.4-0.8,0.4c-0.3,0-0.6-0.2-0.8-0.4l-5.2-5.2l1.6-1.6l4.4,4.4l11.5-11.6
        l1.6,1.7L-122.4,295.4z"/>
</g>
<g>
    <path fill="#CCD8DE" d="M-116.5,347.3c0-0.9,0.2-4.6-2.7-7.4c-1.9-1.9-4.4-2.9-7.9-3.1v-4.4l-10.5,7l10.5,7v-4.4
        c2.2,0.1,3.4,0.5,4.8,1.1c1.7,0.8,3,2.4,4.2,4.2l1.1,1.7h0.6C-116.5,348.5-116.5,347.8-116.5,347.3z"/>
</g>
<g>
    <path fill="#CCD8DE" d="M-221.8,335.3c-0.1-0.4-0.2-0.6-0.2-0.6c-0.1-0.4-0.4-0.4-0.8-0.5l-2.3-0.3c-0.3,0-0.3,0-0.4-0.3
        c-0.4-0.9-0.5-1.4-0.9-1.4h-4.6c-0.4,0-0.5,0.5-0.9,1.4c-0.1,0.2-0.1,0.2-0.4,0.3l-2.4,0.3c-0.4,0.1-0.7,0.1-0.9,0.5
        c0,0-0.1,0.2-0.2,0.6c-0.1,0.5-0.2,0.5,0.3,0.5h13.4C-221.6,335.7-221.7,335.8-221.8,335.3z"/>
    <path fill="#CCD8DE" d="M-223.3,337.1h-10.9c-0.7,0-0.8,0.1-0.7,0.6l0.8,10.7c0.1,0.5,0.1,0.7,0.8,0.7h9.2c0.6,0,0.7-0.1,0.8-0.7
        l0.8-10.7C-222.5,337.2-222.6,337.1-223.3,337.1z"/>
</g>
<g>
    <g>
        
            <rect x="-181.4" y="336.4" transform="matrix(0.7071 0.7071 -0.7071 0.7071 189.989 227.0448)" fill="#F05253" width="4.7" height="13"/>
        <path fill="#F05253" d="M-170.7,336.2l-1.8-1.8c-0.4-0.4-1.2-0.4-1.6,0.1l-1.7,1.7l3.3,3.3l1.7-1.7
            C-170.3,337.4-170.2,336.7-170.7,336.2z"/>
        <polygon fill="#F05253" points="-185.6,346.3 -186.8,350.6 -182.5,349.4         "/>
    </g>
</g>
<g>
    <g>
        
            <rect x="-181.4" y="357.3" transform="matrix(0.7071 0.7071 -0.7071 0.7071 204.7722 233.1682)" fill="#7C7C7C" width="4.7" height="13"/>
        <path fill="#7C7C7C" d="M-170.7,357.1l-1.8-1.8c-0.4-0.4-1.2-0.4-1.6,0.1l-1.7,1.7l3.3,3.3l1.7-1.7
            C-170.3,358.3-170.2,357.6-170.7,357.1z"/>
        <polygon fill="#7C7C7C" points="-185.6,367.2 -186.8,371.5 -182.5,370.3         "/>
    </g>
</g>
<g>
    
        <rect x="-181.4" y="380.5" transform="matrix(0.7071 0.7071 -0.7071 0.7071 221.1924 239.9697)" fill="#CCD8DE" width="4.7" height="13"/>
    <path fill="#CCD8DE" d="M-170.7,380.4l-1.8-1.8c-0.4-0.4-1.2-0.4-1.6,0.1l-1.7,1.7l3.3,3.3l1.7-1.7
        C-170.3,381.5-170.2,380.8-170.7,380.4z"/>
    <polygon fill="#CCD8DE" points="-185.6,390.4 -186.8,394.7 -182.5,393.6     "/>
</g>
<path fill="#CCD8DE" d="M-186.8,148.3c-27.7,0-50.2,22.5-50.2,50.2s22.5,50.2,50.2,50.2s50.2-22.5,50.2-50.2
    S-159.1,148.3-186.8,148.3z M-186.8,152.5c25.4,0,46,20.6,46,46c0,11.2-4,21.5-10.7,29.5c-4.8-2-15.9-5.8-22.4-7.7
    c-0.6-0.2-0.7-0.2-0.7-2.6c0-2,0.8-3.9,1.6-5.6c0.9-1.8,1.9-4.9,2.2-7.6c1-1.2,2.4-3.5,3.3-7.9c0.8-3.9,0.4-5.3-0.1-6.7
    c0-0.1-0.1-0.3-0.1-0.4c-0.2-0.9,0.1-5.7,0.7-9.4c0.5-2.5-0.1-7.9-3.6-12.4c-2.2-2.8-6.4-6.3-14.1-6.8h-4.2
    c-7.6,0.5-11.8,3.9-14,6.8c-3.5,4.5-4.1,9.8-3.6,12.4c0.7,3.7,0.9,8.4,0.7,9.4c0,0.2-0.1,0.3-0.1,0.4c-0.5,1.3-0.9,2.8-0.1,6.7
    c0.9,4.4,2.3,6.8,3.3,7.9c0.4,2.8,1.4,5.8,2.2,7.6c0.6,1.3,0.9,3.1,0.9,5.7c0,2.4-0.1,2.4-0.6,2.6c-6.8,2-17.5,5.9-21.8,7.7
    c-6.7-8-10.8-18.3-10.8-29.6C-232.9,173.2-212.2,152.5-186.8,152.5z"/>
<path fill="#FFFFFF" d="M-260.9,292.3c1.3-2,2-4.4,2-6.9c0-7.1-5.8-12.9-12.9-12.9c-7.1,0-12.9,5.8-12.9,12.9s5.8,12.9,12.9,12.9
    c2.6,0,5-0.8,7-2.1l0.6-0.4l9.2,9.2l2.9-2.9l-9.2-9.2L-260.9,292.3z M-264.5,278.1c1.9,1.9,3,4.5,3,7.2s-1.1,5.3-3,7.2
    c-1.9,1.9-4.5,3-7.2,3c-2.7,0-5.3-1.1-7.2-3c-1.9-1.9-3-4.5-3-7.2s1.1-5.3,3-7.2c1.9-1.9,4.5-3,7.2-3
    C-269,275.1-266.5,276.2-264.5,278.1z"/>
<g>
    <rect x="0" y="0" fill="#373636" width="124.6" height="124.9"/>
    <g>
        <path fill="#FFFFFF" d="M27.7,111.9c-0.8,0.3-1.6,0.7-2.4,1c-1.7,0.6-2,0.5-3.1-0.9c-0.8-0.9-1.6-1.8-2.3-2.7
            c-0.7-0.9-1.3-1.9-1.9-3c-0.5,0.3-1,0.6-1.5,0.9c-0.6,0.3-1.2,0.3-1.6-0.4c-0.9-1.6-1.7-3.1-2.5-4.8c-0.1-0.3,0.2-1,0.5-1.3
            c1.4-1.5,2.9-2.9,4.4-4.2c3.7-3.5,7.9-6.2,12.6-8c5-1.9,10.1-3.6,15.2-5.3c7.5-2.5,15.2-4.2,22.9-5.6c9.5-1.8,18.9-4.3,27.8-7.9
            c4.2-1.7,8.2-4.1,12.2-6.2c2.1-1.1,4.2-2.3,6.3-3.4c1.4-0.8,2.9-1.5,4.4-2.2c1-0.5,1.6,0,1.6,1c0.1,1.5,0.4,3,0.4,4.5
            c0,0.5-0.1,1.1-0.5,1.4c-1,0.8-2.2,1.5-3.3,2.2c-0.5,0.3-0.6,0.6-0.2,1.2c0.5,0.7,0.4,1.6,0,2.3c-1,1.7-2.6,2.9-4.1,4.1
            c-5.4,4-11.2,7.2-17.1,10.4c-5.3,3-10.9,5.4-16.5,7.8c-6.7,2.8-13.5,5.4-20.2,8.2c-4.9,2.1-9.8,4.4-14.5,7
            c-5,2.8-9.5,6.3-13.5,10.5c-0.7,0.7-1.4,1.4-2.1,1.9c-0.7,0.5-1.3,0.5-1.8-0.3c-0.9-1.5-1.7-3-2.6-4.5c-0.3-0.6-0.1-1.2,0.5-1.6
            c1-0.7,1.9-1.4,2.9-2C27.7,112,27.7,111.9,27.7,111.9z M68.4,86.7c-0.1-0.1-0.2-0.3-0.3-0.5c-0.3-0.3-0.6-0.5-0.9-0.8
            c-0.2,0.3-0.4,0.7-0.6,1c0,0.1,0,0.2,0,0.3c-0.1,1.6-0.6,3.2-1.4,4.6c-0.2,0.3-0.5,0.7-0.8,0.9c-0.6,0.3-1.1,0-1.1-0.6
            c0-1,0.1-1.9,0.2-2.9c0-0.6,0.1-1.3,0-1.9c-0.1-0.3-0.6-0.6-1-0.8c-0.1,0-0.4,0.3-0.5,0.5c-0.2,0.9-0.7,1.4-1.6,1.7
            c-0.2,0.1-0.4,0.4-0.5,0.6c-0.7,1.1-1.5,2.1-2.1,3.2c-0.4,0.7-0.7,1.5-1.1,2.2c-0.4,0.7-0.7,1.6-1.3,2.1c-0.9,0.8-2,1.3-3,2
            c-0.4,0.3-0.9,0.4-1.4-0.1c-0.5-0.5-0.2-0.9,0.1-1.4c1.5-2.1,3-4.2,4.5-6.4c1.1-1.7,2-3.6,2.1-5.7c0-0.5-0.2-1.1-0.5-1.4
            c-0.3-0.2-0.9-0.1-1.4,0.1c-0.3,0.1-0.7,0.4-0.9,0.7c-2,1.8-3.6,3.9-4.7,6.3c-0.9,2-1.5,4.1-1.6,6.3c-0.1,1.2-0.4,2.4-1.3,3.2
            c-1.6,1.4-3.3,2.8-5,4.2c-1.1,0.9-2.3,1.5-3.8,1.5c-0.4,0-0.9,0-0.8-0.6c0.3-1.6,1-3,2.3-4c0.9-0.7,2-1,3-1.5
            c0.5-0.3,1-0.5,1.5-0.9c0.6-0.5,0.5-0.9,0-1.5c-0.5-0.6-1.1-0.7-1.7-0.4c-0.9,0.4-1.8,0.8-2.6,1.4c-1.2,0.9-2.3,1.9-3.8,2.2
            c-1.2,0.2-2.9-0.3-3.7-1.4c-0.7-0.9-0.3-1.9,0.2-2.8c1.3-2.3,3-4.3,5.1-5.9c0.6-0.4,1.2-0.9,1.8-1.1c1.2-0.4,2.5-0.6,3.8-0.8
            c0.7-0.1,1.2-0.5,1.2-1.3c0-0.8-0.5-1.4-1.2-1.4c-0.6-0.1-1.2-0.1-1.8,0.1c-4.4,1.2-7.5,3.9-9.6,7.8c-0.4,0.7-0.8,1.4-1.2,2.2
            c-0.5,1.1-0.6,2.2,0,3.3c1.2,2,2.9,3.3,5.4,3.3c-0.2,0.5-0.3,0.9-0.5,1.4c-1.2,2.5,1.4,4.1,3.1,3.7c1-0.3,2.1-0.6,2.9-1.3
            c2.5-1.9,5-3.8,6.7-6.5c0.1-0.2,0.2-0.3,0.3-0.5c0.1,0,0.2,0,0.3,0c0.2,0.3,0.4,0.7,0.7,0.9c0.8,0.7,1.6,0.7,2.3,0.2
            c1.1-0.9,2.3-1.8,3.4-2.7c0.1-0.1,0.2-0.2,0.3-0.3c0.3-0.4,0.5-0.7,0.7-1c0.6,0.5,1.1,0.9,1.6,1.2c0.3,0.1,0.8,0.1,1,0
            c0.6-0.6,1.2-1.3,1.7-2c0.4-0.5,0.6-1.1,1-1.7c0.4,0.2,0.7,0.4,1,0.6c0.5,0.3,1,0.3,1.5-0.2c0.4-0.4,0.8-0.8,1.1-1.2
            c0.4-0.5,0.6-1.1,1-1.6c0.1,0.7,0.1,1.2,0.3,1.7c0.1,0.3,0.5,0.7,0.7,0.7c0.3,0,0.7-0.4,0.8-0.7c0.2-0.8,0.3-1.6,0.4-2.3
            c0.1-1.2,0.5-2.2,1.8-3.1c-0.1,0.5-0.1,0.7-0.1,1c-0.1,1.3,0.2,2.5,1.4,3.3c0.3,0.2,0.8,0.3,1,0.1c0.7-0.7,1.4-1.5,2-2.3
            c0.6-0.9,1.2-1.8,1.8-2.7c0.2,0.3,0.2,0.4,0.1,0.6c-0.1,0.8,0.3,1.6,0.9,1.7c0.8,0.1,1-0.5,1.2-1.1c0.3-0.6,0.6-1.3,1-2.1
            c0.2,0.5,0.3,0.8,0.4,1.1c0.2,0.5,1.1,0.8,1.5,0.6c0.7-0.5,1.5-1,2.2-1.6c0.5-0.5,0.9-1.1,1.3-1.7c0.2-0.3,0.3-0.5,0.5-0.8
            c0.3,0.2,0.6,0.3,0.8,0.5c0.6,0.6,1.1,0.7,1.8,0.2c0.3-0.2,0.8-0.3,1.1-0.5c0.3-0.2,0.6-0.4,0.8-0.7c0.6-1,1.2-2,1.8-3
            c0.3,0.4,0.4,0.7,0.7,1c0.5,0.6,1.2,0.6,1.6,0c0.6-0.8,1.3-1.7,1.6-2.6c0.3-0.9,1.1-1.3,1.6-1.9c0.6,0.9,1.1,1.7,1.7,2.4
            c0.2,0.2,0.5,0.4,0.8,0.4c1.2-0.2,2.6-1.6,2.9-2.8c-0.4,0.3-0.7,0.6-1.1,0.8c-0.8,0.5-1.5,0.2-1.8-0.6c-0.2-0.6-0.2-1.3-0.3-1.9
            c-0.3-1.2-1.1-1.5-2-0.7c-0.6,0.5-1.1,1.1-1.7,1.6c-0.7,0.6-1.4,1.2-2.1,1.9c0-0.3,0.1-0.8,0-1.2c-0.2-0.5-0.6-1.2-1-1.4
            c-0.6-0.2-1.1,0.3-1.2,0.9c-0.2,0.8-0.4,1.7-0.6,2.5c-0.3,1.6-0.9,3-2.3,3.9c-0.3,0.2-0.7,0.2-1,0.2c0-0.4-0.2-0.7-0.1-1.1
            c0-0.5,0.3-1,0.2-1.4c-0.1-0.5-0.4-1-0.8-1.3c-0.1-0.1-0.9,0.3-1,0.6c-0.4,0.7-0.7,1.6-0.9,2.4c-0.4,1.6-1.3,2.9-2.7,3.7
            c-0.3,0.2-0.7,0.1-1.1,0.1c0.1-0.3,0.2-0.7,0.5-0.9c0.4-0.5,0.9-0.9,1.4-1.3c0.6-0.6,0.5-1.6,0-2.1c-0.4-0.3-1.2-0.1-1.7,0.5
            c-0.1,0.2-0.3,0.4-0.4,0.5c-0.6,0.8-1.1,1.6-1.7,2.4c0-1,0.1-1.9,0.3-2.8c0.2-1.1,0.3-2.1-0.2-3.1c-0.2-0.5-0.6-0.9-1.2-0.7
            c-0.6,0.1-0.8,0.6-0.8,1.1c0,0.6,0,1.2,0,1.7c-0.3,2.5-1.4,4.6-2.7,6.7c-0.6,1-1.4,1.8-2.6,2.5c0.1-0.9,0.2-1.6,0.2-2.3
            c0-0.8,0-1.6-0.2-2.3c-0.2-0.8-0.9-1-1.6-0.6C69.9,85.3,69.2,86,68.4,86.7z M89,75.7c-0.2-0.7-0.7-1.4-1.1-1.4
            c-0.6,0-1.4,0.5-1.4,1c0,0.7,0.9,1.8,1.5,1.6C88.3,76.8,88.6,76.1,89,75.7z"/>
        <path fill="#FFFFFF" d="M14.6,52.3c-1.8,0.2-3.5,0.5-5.2,0.6C7.6,53,5.8,53.1,4,53.2c-0.7,0-1.2-0.3-1.2-1.1c0-2-0.1-4-0.1-6.1
            c0-0.8,0.5-1.3,1.5-1.4c2.3-0.3,4.6-0.6,6.8-0.9c1.1-0.1,2.3-0.3,3.6-0.5c-0.1-2.5-0.2-5-0.4-7.4c0-0.8-0.2-1.5-0.2-2.3
            c-0.1-1.1,0.2-1.6,1.3-1.8c1.8-0.4,3.7-0.7,5.6-1c0.8-0.1,1.3,0.2,1.4,1c0.4,2.3,0.7,4.6,1,6.9c0.1,0.7,0,1.4,0,2.3
            c1.4-0.4,2.6-0.7,3.9-1.1c1.8-0.5,3.5-1,5.3-1.5c1.6-0.4,2.4,0.1,2.3,1.7c-0.1,2-0.2,3.9-0.3,5.9c0,0.7-0.4,1-1,1.2
            c-3,0.9-5.9,1.8-8.9,2.7c-0.8,0.2-1.2,0.8-1.2,1.6c0.1,5.4,0.2,10.8,0.3,16.2c0.1,3.2,0.2,6.3,0.3,9.5c0,1.9,0,3.8-0.1,5.7
            c0,0.6-0.3,0.9-0.8,1c-2,0.3-3.9,0.7-5.9,0.9c-1.2,0.1-1.7-0.3-1.8-1.6c-0.1-2.2-0.1-4.3-0.2-6.5c-0.2-7.5-0.4-14.9-0.6-22.4
            C14.6,53.7,14.6,53.1,14.6,52.3z"/>
        <path fill="#FFFFFF" d="M60.3,61.3c-0.8,0.5-1.5,1-2.2,1.5c0.1,0.2,0.2,0.4,0.2,0.7c0,1.3-0.2,1.6-1.6,1.6c-1.3,0-2.7,0-4,0
            c-0.9,0-1.8-0.4-2.4-1.1c-0.5-0.6-1.1-1.2-1.8-2c-0.1,0.6-0.1,1-0.1,1.4c-0.1,2.5-0.2,4.9-0.3,7.4c0,1.1-0.5,1.9-1.4,2.3
            c-1.1,0.6-2.2,1.2-3.4,1.7c-0.7,0.3-1.3,0.1-1.5-0.7c-0.2-0.6-0.2-1.3-0.2-1.9c0.1-4.7,0.2-9.4,0.3-14.1c0-1-0.1-1.9-0.1-2.9
            c0-1.7,0.2-1.9,2-2.3c0.9-0.2,1.8-0.2,2.6-0.2c1.1,0,2.1,0.5,2.9,1.3c1.7,1.8,3.4,3.5,5.2,5.5c0.8-1.4,1.6-2.5,2.2-3.8
            c0.7-1.4,1.4-2.5,3.3-2.3c-0.1-0.9-0.3-1.8-0.4-2.6c-0.1-0.5-0.1-1.1,0.1-1.5c0.1-0.3,0.5-0.7,0.8-0.7c1.7-0.1,3.4-0.1,5.1,0
            c0.3,0,0.8,0.5,0.9,0.8c0.3,1.4,0.7,2.7,0.8,4.1c0.3,4.3,0.5,8.5,0.7,12.8c0,1.4-0.3,2.8-0.4,4.2c-0.1,0.9-0.8,1.4-1.6,1.5
            c-1.3,0.3-2.6,0.6-3.9,0.8c-1.2,0.3-1.5-0.1-1.5-1.2C60.8,68.2,60.7,64.8,60.3,61.3z"/>
        <path fill="#FFFFFF" d="M109.5,48.3c0.1,0.1,0.1,0.1,0.1,0.2c2.6,0.9,3.7,3,4.3,5.5c0.2,0.8,0.3,1.7,0.5,2.5
            c0.1,0.7-0.1,1.1-0.8,1.2c-1.7,0.1-3.3,0.1-5,0c-0.3,0-0.8-0.6-1-1.1c-0.5-1.1-0.8-2.2-1.3-3.2c-0.8-1.6-3.3-2.5-4.9-1.9
            c-0.2,0.1-0.3,0.5-0.3,0.7c-0.2,2.3-0.3,4.7-0.5,7c-0.1,1.3-0.5,2.6-2,2.8c-1.4,0.3-2.9,0.3-4.4,0.5c-0.5,0.1-0.6-0.3-0.6-0.7
            c0-1.1,0.2-2.2,0.2-3.2c0.1-5.2,0.1-10.4,0.1-15.6c0-1-0.3-2-0.3-3.1c0-0.4,0.4-1,0.7-1.1c1.6-0.3,3.2-0.4,4.7-0.6
            c2,1.2,4.1,0.3,6.2,0.2c1.9-0.2,3.8,0,5.6,0.8c2.5,1.1,3,4.7,1.3,6.3C111.2,46.3,110.4,47.3,109.5,48.3z M101,48.1
            c2.4-0.9,4-2.2,5-4.2c0.2-0.3,0.1-1.1-0.2-1.3c-1.1-0.9-2.3-1.4-3.8-1.1c-0.7,0.2-1,0.5-1,1.3C101,44.4,101,46.2,101,48.1z"/>
        <path fill="#FFFFFF" d="M46.4,32.2c-0.6,0.3-0.9,0.4-1.3,0.6c-0.8,0.4-1.8,0.2-2.3-0.6c-0.4-0.6-0.2-1.5,0.6-2.1
            c0.6-0.4,1.3-0.7,1.9-1.1c0.3-0.2,0.6-0.6,0.6-1c0-1.6-0.2-3.3-0.2-4.9c0-0.7,0.1-1.4,0.3-2.1c0.1-0.3,0.7-0.6,1.1-0.6
            c1.2-0.1,2.4-0.2,3.6-0.2c1,0,1.4,0.4,1.6,1.4c0.2,1.5,0.4,3,0.5,4.5c0,0.7,0.3,0.9,1,0.8c1.9-0.3,3.8,0,5.7,0.3
            c4.3,0.8,5.5,4,4.6,7.7c-0.4,1.7-1.3,3-3,3.6c-2.3,1-4.5,1.9-6.8,2.8c-0.7,0.3-1,0.6-1,1.3c0,1.3-0.2,1.3-1.3,1.7
            c-0.6,0.2-1.2,0.6-1.8,0.9c-0.7,0.3-1.3,0.7-2,0.8c-0.8,0.2-1.1-0.5-1.2-1.1c-0.1-0.6-0.1-1.2-0.1-1.8
            C46.7,39.5,46.6,35.9,46.4,32.2z M53.2,30.8c0.1,2.7,0.3,5.1,0.4,7.6c2.8-0.8,4.1-3.4,3.2-5.9c-0.1-0.2-0.2-0.5-0.4-0.6
            C55.4,31.5,54.4,31.2,53.2,30.8z"/>
        <path fill="#FFFFFF" d="M81.6,58.8c1-1.7,1.3-3.6,1.5-5.5c0.2-1.9,0.3-3.7,0.5-5.6c0.1-0.9,0.7-1.4,1.5-1.6
            c1.5-0.2,2.9-0.4,4.4-0.5c0.6-0.1,0.8,0.3,0.7,0.8c-0.1,2.2-0.2,4.4-0.4,6.6c-0.2,3.4-1.8,6.3-3.5,9.1c-0.4,0.6-1,1.1-1.7,1.5
            c-1.4,0.7-2.8,1.3-4.2,1.9c-1.2,0.5-2.4,0.4-3.4-0.4c-1-0.8-1.8-1.7-2.2-2.9c-0.5-1.7-1-3.4-1.6-5.1c-1-2.9-2-5.9-3-8.8
            c0-0.1-0.1-0.3-0.2-0.4c-0.6-1.6-0.3-2.4,1.4-2.7c1.2-0.2,2.5-0.3,3.7-0.4c0.9-0.1,1.3,0.4,1.7,1.1c1.7,3.2,2.7,6.7,3.6,10.2
            c0.2,0.9,0.5,1.9,0.8,2.8C81.4,58.8,81.5,58.8,81.6,58.8z"/>
        <path fill="#FFFFFF" d="M75.1,30.9c-1.1,0.5-2.1,1-3.1,1.5c-1,0.5-1.9,0.4-2.8-0.2c-2.7-1.8-4.1-4.2-4.5-7.4c-0.1-1-0.3-2-0.4-3
            c-0.1-1.5,0.3-2.1,1.7-2.3c1.1-0.2,2.2-0.3,3.4-0.4c0.7-0.1,1.2,0.3,1.3,1.1c0.3,1.4,0.6,2.9,1,4.3c0.3,1.2,0.9,2.2,2,3.2
            c0.3-0.3,0.6-0.6,0.7-0.9c0.5-0.9,0.9-1.8,1.3-2.8c0.2-0.5,0.2-1.1,0.3-1.6c0.1-0.6,0.4-0.9,1-0.9c1.6-0.1,3.1-0.2,4.7-0.3
            c0.6,0,1,0.3,1,0.9c0.1,1.5,0.2,2.9,0.2,4.4c-0.1,1.5-0.2,3-0.5,4.5c-0.6,3.6-2.4,6.3-5.9,7.7c-1.8,0.7-3.7,1.3-5.6,1.8
            c-0.6,0.2-1.4-0.1-2-0.2C68.4,40,68,39.7,68,39.4c0-0.3,0.3-0.7,0.6-0.8c0.6-0.4,1.2-0.6,1.8-0.9C73.2,36.4,74.6,34.1,75.1,30.9z"
            />
        <path fill="#FFFFFF" d="M37.2,68.1c-0.2,3.5-0.9,6.9-1.7,10.3c-0.4,1.7-1.1,2.6-2.7,3.1c-0.9,0.3-1.8,0.8-2.8,1
            c-0.4,0.1-1-0.1-1.2-0.4c-0.7-0.7-0.8-1.7-0.6-2.6c0.4-1.8,0.9-3.6,1.1-5.4c0.3-2.6,0.3-5.1,0.4-7.7c0-1,0-1.9,0.1-2.9
            c0-0.3,0.4-0.6,0.7-0.7c1.6-0.3,3.2-0.5,4.8-0.7c0.6-0.1,1,0.1,1.1,0.7C36.6,64.6,36.9,66.4,37.2,68.1z"/>
        <path fill="#FFFFFF" d="M32.1,55.6c-2.3,0.6-3.3-0.6-4.1-2.2c0.8-1.4,2.1-1.8,3.6-1.7c1.6,0.1,3.1,0.1,4.7,0.3
            c1,0.1,1,0.4,0.7,1.3c-0.1,0.2-0.1,0.4,0,0.6c0.3,1.3-0.2,2.2-1.3,2.9c-0.2,0.1-0.3,0.2-0.5,0.4c0.2,0.1,0.5,0.1,0.5,0.2
            c0.2,0.3,0.5,0.7,0.5,1c0,0.2-0.5,0.5-0.9,0.5c-1.4,0.2-2.8,0.3-4.1,0.3c-0.5,0-0.9-0.6-1.3-0.9c-0.1-0.1,0.2-0.6,0.5-0.8
            C30.9,56.8,31.4,56.3,32.1,55.6z"/>
        <path fill="#FFFFFF" d="M87.5,28.1c0.6-0.1,1.2-0.2,1.9-0.2c3,0,6-0.1,9-0.1c0.6,0,1.4,0.2,1.4,0.8c0,0.3-0.8,0.9-1.3,1
            c-3.4,0.4-6.7,0.2-10-0.7c-0.4-0.1-0.7-0.4-1.1-0.6C87.5,28.3,87.5,28.2,87.5,28.1z"/>
        <path fill="#FFFFFF" d="M28.2,29.2c1.5,0,3.1,0,4.6,0c1.2,0,2.4,0.1,3.6,0.1c0.2,0,0.5-0.1,0.7,0c0.4,0.2,0.7,0.5,1,0.8
            c-0.3,0.3-0.6,0.7-1,0.8c-0.7,0.2-1.4,0.1-2.1,0.2c-1.2,0.1-2.5,0.2-3.7,0.4C29.4,31.8,28.6,31.2,28.2,29.2z"/>
        <path fill="#FFFFFF" d="M87.2,34.7c0.7,0.1,1.6,0.3,2.5,0.5c-1.4,2-2.8,3.6-4.7,4.6C85.7,38.1,86.4,36.5,87.2,34.7z"/>
        <path fill="#FFFFFF" d="M52.6,74.8c0.3-1.6,0.6-2.9,0.9-4.3c0.8-0.3,1.1,0.1,1.2,0.8c0.1,0.7,0.1,1.3,0.2,2
            c0.1,0.8-0.2,1.1-0.9,1.3C53.7,74.6,53.3,74.6,52.6,74.8z"/>
        <path fill="#FFFFFF" d="M73.5,69.2c0.7,0.5,1.2,0.9,2,1.5c-0.9,0.2-1.5,0.3-2.4,0.4C73.2,70.5,73.3,69.9,73.5,69.2z"/>
        <path fill="#FFFFFF" d="M50.5,95.2c0.7-3.4,2.1-6.5,4.8-8.8C54.5,89.8,53.2,92.9,50.5,95.2z"/>
        <path fill="#FFFFFF" d="M58.4,95.6c0.1-2.2,0.8-3.9,2.8-5.1C61.2,92,59.9,95.5,58.4,95.6z"/>
    </g>
</g>
</svg>
