<?xml version="1.0" encoding="utf-8"?>
<!-- Generator: Adobe Illustrator 17.1.0, SVG Export Plug-In . SVG Version: 6.00 Build 0)  -->
<!DOCTYPE svg PUBLIC "-//W3C//DTD SVG 1.1//EN" "http://www.w3.org/Graphics/SVG/1.1/DTD/svg11.dtd">
<svg version="1.1" id="Layer_1" xmlns="http://www.w3.org/2000/svg" xmlns:xlink="http://www.w3.org/1999/xlink" x="0px" y="0px"
     viewBox="0 0 29.2 29.2" enable-background="new 0 0 29.2 29.2" xml:space="preserve">
<path fill="#FFFFFF" d="M27.9,21.2c-1.2-1.2-4.7-3.6-6.9-3.6c-0.5,0-1,0.1-1.4,0.4c-1.1,0.7-2,1.3-2.4,1.3c-0.2,0-0.5-0.2-1-0.7
    l-0.1-0.1c-1.5-1.3-1.8-1.7-2.4-2.3L13.5,16c-0.1-0.1-0.2-0.2-0.3-0.3c-0.5-0.5-0.9-0.9-2.2-2.4L11,13.3c-0.6-0.7-1-1.2-1.1-1.5
    c0-0.3,0.3-0.9,1-1.9c0.9-1.2,0.9-2.7,0.1-4.4c-0.7-1.4-1.7-2.7-2.7-3.8L8.2,1.5C7.4,0.5,6.5,0,5.4,0C4.3,0,3.3,0.6,2.8,1
    C2.7,1,2.7,1,2.6,1c-1.2,0.7-2,1.7-2.3,2.8c-0.5,1.5-0.8,3.5,1.5,7.7c2,3.6,3.7,6,6.6,8.9c2.7,2.7,3.8,3.6,6.5,5.5
    c2.9,2.1,5.8,3.3,7.7,3.3c1.8,0,3.3,0,5.3-2.5C30.1,24.1,29.2,22.5,27.9,21.2z M26.9,25.8c-1.7,2-2.6,2-4.3,2c-1.7,0-4.3-1.2-7-3.1
    c-2.6-1.9-3.7-2.7-6.3-5.4c-2.7-2.8-4.5-5.1-6.3-8.6C1,7.1,1.2,5.5,1.6,4.2c0.2-0.7,0.9-1.5,1.7-2c0,0,0.1-0.1,0.1-0.1
    c0.4-0.3,1.2-0.8,2-0.8c0.7,0,1.3,0.3,1.8,1l0.1,0.1c2.1,2.6,3.8,4.9,2.5,6.6c-0.9,1.2-1.3,2-1.3,2.8c0.1,0.8,0.6,1.4,1.4,2.3
    l0.1,0.1c1.3,1.5,1.7,1.9,2.2,2.4c0.1,0.1,0.2,0.2,0.3,0.3l0.1,0.2c0.6,0.6,1,1,2.5,2.4l0.1,0.1c0.7,0.6,1.2,1,1.9,1
    c0.7,0,1.6-0.5,3.1-1.5c0.2-0.1,0.4-0.2,0.7-0.2c1.8,0,4.9,2.1,6,3.2C28,23.2,28.5,24,26.9,25.8z"/>
</svg>
