<?xml version="1.0" encoding="utf-8"?>
<!-- Generator: Adobe Illustrator 17.1.0, SVG Export Plug-In . SVG Version: 6.00 Build 0)  -->
<!DOCTYPE svg PUBLIC "-//W3C//DTD SVG 1.1//EN" "http://www.w3.org/Graphics/SVG/1.1/DTD/svg11.dtd">
<svg version="1.1" id="Layer_1" xmlns="http://www.w3.org/2000/svg" xmlns:xlink="http://www.w3.org/1999/xlink" x="0px" y="0px"
     viewBox="0 0 595.3 841.9" enable-background="new 0 0 595.3 841.9" xml:space="preserve">
<path fill="#FFFFFF" d="M298.3,123.3C132.7,123.3,0,256,0,421.6S132.7,720,298.3,720s298.3-132.7,298.3-298.3
    S462.5,123.3,298.3,123.3z M477.6,600.9c-47.9,47.9-112.2,75.3-180.6,75.3c-21.9,0-42.4-2.7-62.9-8.2c4.1-8.2,6.8-16.4,9.6-26
    c4.1-13.7,20.5-82.1,20.5-82.1c10.9,19.2,41.1,36.9,72.5,36.9c95.8,0,160.1-87.6,160.1-203.9c0-87.6-75.3-171.1-188.8-171.1
    c-141,0-213.5,101.3-213.5,186.1c0,50.6,19.2,97.2,61.6,113.6c6.8,2.7,12.3,0,15.1-6.8c1.4-5.5,4.1-19.2,5.5-23.3
    c1.4-6.8,1.4-9.6-4.1-16.4c-12.3-13.7-19.2-32.8-19.2-58.8c0-75.3,56.1-142.3,146.4-142.3c79.4,0,124.5,49.3,124.5,113.6
    c0,86.2-38.3,158.7-94.4,158.7c-31.5,0-54.7-26-46.5-57.5c9.6-38.3,26-78,26-105.4c0-24.6-13.7-45.2-39.7-45.2
    c-31.5,0-57.5,32.8-57.5,76.6c0,27.4,9.6,46.5,9.6,46.5s-32.8,138.2-38.3,162.8c-1.4,6.8-2.7,15.1-4.1,21.9
    c-23.3-12.3-43.8-27.4-62.9-46.5c-47.9-47.9-75.3-112.2-75.3-180.6s26-132.7,75.3-180.6C164.2,190.4,228.5,163,297,163
    s132.7,26,180.6,75.3c47.9,47.9,75.3,112.2,75.3,180.6S526.9,553,477.6,600.9z"/>
</svg>
