<?xml version="1.0" encoding="utf-8"?>
<!-- Generator: Adobe Illustrator 17.1.0, SVG Export Plug-In . SVG Version: 6.00 Build 0)  -->
<!DOCTYPE svg PUBLIC "-//W3C//DTD SVG 1.1//EN" "http://www.w3.org/Graphics/SVG/1.1/DTD/svg11.dtd">
<svg version="1.1" id="Layer_1" xmlns="http://www.w3.org/2000/svg" xmlns:xlink="http://www.w3.org/1999/xlink" x="0px" y="0px"
     viewBox="0.9 128.8 593 565.3" enable-background="new 0.9 128.8 593 565.3" xml:space="preserve">
<path fill="#333333" d="M592.8,621.5c-0.4-3.1-1-6.3-2-9.9c-4.4-17.2-13.3-31.9-25.6-41.6L312.4,365v-48.5
    c19.4-3.1,37.4-12.3,51.7-26.6c17.9-17.9,27.8-41.6,27.8-66.7s-9.9-48.8-27.8-66.7c-17.9-17.9-41.6-27.8-66.7-27.8
    c-52.1,0-94.5,42.4-94.5,94.5c0,2.3,0.1,4.6,0.3,6.9h-10.1c-8.3,0-15,6.7-15,15s6.7,15,15,15h52.2c8.3,0,15-6.7,15-15s-6.7-15-15-15
    h-12c-0.3-2.4-0.4-4.7-0.4-6.9c0-35.6,28.9-64.5,64.5-64.5s64.5,28.9,64.5,64.5s-28.9,64.5-64.5,64.5c-8.3,0-15,6.7-15,15v63.9
    L28,573.6C11,587.3,0.9,611,0.9,637.1v0.5c0,31.2,20.3,56.5,45.3,56.5h502c0.7,0,1.4,0,2.2-0.1c0.4,0,0.8-0.1,1.3-0.1
    c0.3,0,0.5,0,0.8-0.1c23.6-2.5,41.6-26.3,41.6-56.3v-1C593.9,631.4,593.5,626.4,592.8,621.5z M298.4,392.3l73.4,59.5H225.3
    L298.4,392.3z M188.4,481.8h220.4l137.5,111.5c0.1,0,0.1,0.1,0.2,0.1c1.9,1.5,3.7,3.3,5.3,5.2c-51.3-0.1-165.2-0.5-276-0.9
    c-94.1-0.3-184.2-0.7-229-0.8c0,0,0.1-0.1,0.1-0.1L188.4,481.8z M46.1,664.1c-7.1,0-15.3-11.6-15.3-26.5v-0.5c0-0.9,0-1.8,0.1-2.6
    c0-1,0.1-1.9,0.2-2.9h532.2c0,1.5,0,3.1,0,5v1c0,0.1,0,0.2,0,0.3c0.2,7.9-2,15.2-5.8,20.3c-0.1,0.1-0.2,0.2-0.3,0.3
    c-0.1,0.2-0.3,0.3-0.4,0.5c-2.1,2.5-4.4,4.1-6.7,4.8c-0.3,0.1-0.5,0.1-0.8,0.2c-0.1,0-0.2,0-0.3,0c-0.3,0-0.7,0.1-1,0.1H46.1z"/>
</svg>
