<?xml version="1.0" encoding="utf-8"?>
<!-- Generator: Adobe Illustrator 17.1.0, SVG Export Plug-In . SVG Version: 6.00 Build 0)  -->
<!DOCTYPE svg PUBLIC "-//W3C//DTD SVG 1.1//EN" "http://www.w3.org/Graphics/SVG/1.1/DTD/svg11.dtd">
<svg version="1.1" id="Layer_1" xmlns="http://www.w3.org/2000/svg" xmlns:xlink="http://www.w3.org/1999/xlink" x="0px" y="0px"
     viewBox="0 0 595.3 841.9" enable-background="new 0 0 595.3 841.9" xml:space="preserve">
<path fill="#FFFFFF" d="M434.6,486.7c23.7-36.5,36.5-80.3,36.5-126c0-131.5-104.1-237.4-235.6-237.4C105.9,123.3,0,229.2,0,358.9
    s105.9,235.6,235.6,235.6c47.5,0,91.3-14.6,127.8-38.3l11-7.3l168,168l53-53l-168-168L434.6,486.7z M368.9,227.4
    c34.7,34.7,54.8,82.2,54.8,131.5s-20.1,96.8-54.8,131.5s-82.2,54.8-131.5,54.8s-96.8-20.1-131.5-54.8s-54.8-82.2-54.8-131.5
    s20.1-96.8,54.8-131.5s82.2-54.8,131.5-54.8C286.7,172.6,332.3,192.7,368.9,227.4z"/>
</svg>
