<?xml version="1.0" encoding="utf-8"?>
<!-- Generator: Adobe Illustrator 17.1.0, SVG Export Plug-In . SVG Version: 6.00 Build 0)  -->
<!DOCTYPE svg PUBLIC "-//W3C//DTD SVG 1.1//EN" "http://www.w3.org/Graphics/SVG/1.1/DTD/svg11.dtd">
<svg version="1.1" id="Layer_2" xmlns="http://www.w3.org/2000/svg" xmlns:xlink="http://www.w3.org/1999/xlink" x="0px" y="0px"
     viewBox="0 0 6.6 33" enable-background="new 0 0 6.6 33" xml:space="preserve">
<g>
    <path fill="#010101" d="M0,16.5c0,1.8,1.5,3.3,3.3,3.3s3.3-1.5,3.3-3.3s-1.5-3.3-3.3-3.3S0,14.7,0,16.5L0,16.5z"/>
    <path fill="#010101" d="M0,29.7C0,31.5,1.5,33,3.3,33s3.3-1.5,3.3-3.3s-1.5-3.3-3.3-3.3S0,27.9,0,29.7L0,29.7z"/>
    <path fill="#010101" d="M0,3.3c0,1.8,1.5,3.3,3.3,3.3s3.3-1.5,3.3-3.3S5.1,0,3.3,0C1.5,0,0,1.5,0,3.3L0,3.3z"/>
</g>
</svg>
