<?xml version="1.0" encoding="utf-8"?>
<!-- Generator: Adobe Illustrator 17.1.0, SVG Export Plug-In . SVG Version: 6.00 Build 0)  -->
<!DOCTYPE svg PUBLIC "-//W3C//DTD SVG 1.1//EN" "http://www.w3.org/Graphics/SVG/1.1/DTD/svg11.dtd">
<svg version="1.1" id="Layer_2" xmlns="http://www.w3.org/2000/svg" xmlns:xlink="http://www.w3.org/1999/xlink" x="0px" y="0px"
     viewBox="226.8 0 158.4 792" enable-background="new 226.8 0 158.4 792" xml:space="preserve">
<g>
    <path fill="#FFFEFE" d="M226.8,396c0,43.2,36,79.2,79.2,79.2s79.2-36,79.2-79.2s-36-79.2-79.2-79.2S226.8,352.8,226.8,396
        L226.8,396z"/>
    <path fill="#FFFEFE" d="M226.8,712.8c0,43.2,36,79.2,79.2,79.2s79.2-36,79.2-79.2c0-43.2-36-79.2-79.2-79.2
        S226.8,669.6,226.8,712.8L226.8,712.8z"/>
    <path fill="#FFFEFE" d="M226.8,79.2c0,43.2,36,79.2,79.2,79.2s79.2-36,79.2-79.2S349.2,0,306,0S226.8,36,226.8,79.2L226.8,79.2z"/>
</g>
</svg>
