<?xml version="1.0" encoding="utf-8"?>
<!-- Generator: Adobe Illustrator 17.1.0, SVG Export Plug-In . SVG Version: 6.00 Build 0)  -->
<!DOCTYPE svg PUBLIC "-//W3C//DTD SVG 1.1//EN" "http://www.w3.org/Graphics/SVG/1.1/DTD/svg11.dtd">
<svg version="1.1" id="Layer_1" xmlns="http://www.w3.org/2000/svg" xmlns:xlink="http://www.w3.org/1999/xlink" x="0px" y="0px"
     viewBox="0 0 595.3 841.9" enable-background="new 0 0 595.3 841.9" xml:space="preserve">
<path fill="#FFFFFF" d="M595.3,236.2c-22.1,10-45.4,16.6-69.7,18.8c25.4-15.5,44.3-38.7,54.2-67.5c-23.2,14.4-49.8,24.3-77.5,29.9
    c-22.1-24.3-54.2-38.7-89.6-38.7c-67.5,0-121.7,54.2-121.7,121.7c0,10,1.1,18.8,3.3,27.7C191.4,323.7,101.8,275,40.9,200.9
    c-10,17.7-16.6,39.8-16.6,62c0,42,21,79.7,54.2,101.8c-19.9,0-38.7-5.5-55.3-15.5v1.1c0,59.7,42,108.4,98.5,119.5
    c-10,3.3-21,4.4-32.1,4.4c-7.7,0-15.5-1.1-23.2-2.2c15.5,48.7,60.9,84.1,114,85.2c-42,33.2-94,52-151.6,52c-10,0-19.9-1.1-28.8-2.2
    c54.2,35.4,118.4,55.3,187,55.3c224.6,0,347.4-185.9,347.4-347.4c0-5.5,0-11.1,0-15.5C557.7,282.6,578.7,260.5,595.3,236.2z"/>
</svg>
