<?xml version="1.0" encoding="utf-8"?>
<!-- Generator: Adobe Illustrator 17.1.0, SVG Export Plug-In . SVG Version: 6.00 Build 0)  -->
<!DOCTYPE svg PUBLIC "-//W3C//DTD SVG 1.1//EN" "http://www.w3.org/Graphics/SVG/1.1/DTD/svg11.dtd">
<svg version="1.1" id="Layer_1" xmlns="http://www.w3.org/2000/svg" xmlns:xlink="http://www.w3.org/1999/xlink" x="0px" y="0px"
     viewBox="0 0 595.3 841.9" enable-background="new 0 0 595.3 841.9" xml:space="preserve">
<path fill="#40C7F4" d="M593.1,238.4c-22.1,10-45.4,16.6-69.7,18.8c25.4-15.5,44.3-38.7,53.1-67.5c-23.2,14.4-49.8,24.3-77.5,29.9
    c-22.1-23.2-54.2-38.7-88.5-38.7c-67.5,0-121.7,54.2-121.7,121.7c0,10,1.1,18.8,3.3,27.7C191.4,325.8,101.8,277.1,42,203
    c-10,18.8-16.6,38.7-16.6,62c0,42,22.1,79.7,54.2,101.8c-19.9,0-38.7-5.5-55.3-15.5v1.1c0,58.6,42,107.3,97.4,118.4
    c-10,2.2-21,4.4-32.1,4.4c-7.7,0-15.5-1.1-23.2-2.2c15.5,48.7,60.9,83,114,84.1c-40.9,33.2-92.9,53.1-150.5,53.1
    c-10,0-19.9-1.1-28.8-2.2c53.1,35.4,117.3,55.3,185.9,55.3c223.5,0,346.3-185.9,346.3-346.3c0-5.5,0-11.1,0-15.5
    C556.6,283.7,576.5,262.7,593.1,238.4z"/>
</svg>
