<?xml version="1.0" encoding="utf-8"?>
<!-- Generator: Adobe Illustrator 17.1.0, SVG Export Plug-In . SVG Version: 6.00 Build 0)  -->
<!DOCTYPE svg PUBLIC "-//W3C//DTD SVG 1.1//EN" "http://www.w3.org/Graphics/SVG/1.1/DTD/svg11.dtd">
<svg version="1.1" id="Layer_1" xmlns="http://www.w3.org/2000/svg" xmlns:xlink="http://www.w3.org/1999/xlink" x="0px" y="0px"
     viewBox="0 0 595.3 841.9" enable-background="new 0 0 595.3 841.9" xml:space="preserve">
<path fill="#FFFFFF" d="M0,272.7c3.1-2.3,7-4.7,12.5-5.5c3.9-1.6,8.6-2.3,11.7-2.3h4.7c3.1,0,7,0,11.7,0.8c7,0,12.5,0,15.6,0
    c1.6,0,7.8,0,18.8-0.8c5.5,0,10.2,0,14.1,0s7.8,0,11,0c6.3,0.8,11.7,1.6,15.6,3.9c1.6,0.8,3.9,3.1,6.3,6.3c2.3,3.1,3.9,6.3,5.5,9.4
    c1.6,2.3,3.1,7,5.5,12.5c2.3,5.5,3.9,8.6,4.7,10.2c12.5,26.6,27.4,53.2,46.2,79.8c0.8,0.8,1.6,3.1,3.1,5.5c1.6,2.3,3.1,4.7,3.9,6.3
    c0.8,1.6,2.3,3.1,4.7,5.5c1.6,2.3,3.1,3.9,5.5,5.5c1.6,1.6,3.1,2.3,5.5,3.9s3.9,2.3,5.5,2.3c1.6,0,3.9,0,5.5,0
    c9.4-1.6,14.1-20.3,14.9-57.1c0-6.3,0.8-11.7,0.8-17.2c0-24.2-2.3-40.7-7-50.1c-1.6-3.9-4.7-6.3-7.8-8.6c-3.1-1.6-7-3.1-11.7-5.5
    c-4.7-2.3-8.6-3.1-11-4.7c4.7-9.4,12.5-14.9,24.2-18c11.7-3.1,27.4-4.7,46.9-4.7h25.8c0,0,3.9,0,12.5,0c8.6,0,12.5,0.8,13.3,1.6
    l11,2.3c0,0,3.1,1.6,9.4,4.7c6.3,3.1,8.6,5.5,6.3,7c3.1,5.5,4.7,12.5,5.5,20.3c0,2.3,0,4.7,0.8,7c0,6.3-0.8,14.9-1.6,25
    c-1.6,13.3-1.6,21.9-1.6,25c-0.8,7.8-1.6,14.9-1.6,22.7c0,5.5,0,11.7,0.8,18.8c1.6,14.1,6.3,24.2,14.9,29.7c3.1,0,5.5-0.8,7.8-1.6
    c2.3-0.8,4.7-3.1,7.8-5.5c3.1-2.3,4.7-4.7,5.5-5.5s3.1-3.9,6.3-7.8c3.1-3.9,4.7-6.3,5.5-7c15.6-20.3,30.5-46.9,46.2-79.8l4.7-11
    c0,0,1.6-3.9,5.5-13.3s5.5-11.7,5.5-9.4c0,2.3,2.3,0,7.8-6.3c5.5-2.3,11.7-3.1,18.8-3.1h4.7c6.3,0,14.1,0,22.7,0.8
    c7.8,0.8,15.6,0.8,20.3,0.8c3.1,0,7,0,13.3-0.8c6.3,0,11-0.8,15.6-0.8c4.7,0,9.4,0,14.1,0s9.4,1.6,12.5,3.1c3.1,1.6,5.5,3.9,7,6.3
    c0.8,1.6,1.6,3.9,1.6,6.3c0,9.4-5.5,23.5-17.2,42.2c-5.5,9.4-11,18-17.2,25.8c-5.5,7.8-13.3,17.2-21.9,28.2
    c-9.4,11-14.9,18.8-18,22.7c-0.8,0.8-3.1,3.9-7,8.6c-3.9,5.5-7,9.4-8.6,11.7c-1.6,2.3-3.9,6.3-5.5,11c-1.6,4.7-3.1,9.4-2.3,13.3
    c0,2.3,0.8,4.7,1.6,7c0.8,2.3,2.3,4.7,4.7,7c2.3,2.3,3.9,4.7,4.7,5.5c0.8,0.8,3.1,3.1,6.3,6.3c3.1,3.1,5.5,4.7,5.5,5.5
    c23.5,21.1,41.5,39.9,54.8,57.1s19.6,28.9,19.6,36.8c0,11-8.6,17.2-25,20.3c-8.6,1.6-17.2,1.6-25.8,1.6c-7,0-14.1-0.8-21.1-1.6
    c-6.3-0.8-12.5-0.8-18-0.8c-8.6,0-15.6,0.8-21.9,2.3h-3.1c-21.1-3.9-43.8-18.8-68.1-46.2c-1.6-1.6-3.9-4.7-8.6-10.2
    s-7.8-9.4-11-12.5c-3.1-3.1-7-5.5-11-8.6c-3.9-3.1-8.6-3.9-13.3-3.1c-7.8,1.6-12.5,6.3-14.9,14.1s-3.9,18-4.7,28.9
    c-0.8,11-2.3,18.8-4.7,23.5c-3.9,7.8-17.2,11.7-38.3,11.7c-9.4,0-19.6-0.8-32.1-1.6c-25-2.3-48.5-9.4-68.8-19.6
    c-20.3-10.2-36.8-21.1-49.3-32.9c-11.7-11.7-25-26.6-39.9-45.4c-33.6-43-65.7-95.4-96.2-157.2c1.6,0.8-0.8-3.1-3.1-8.6
    c-2.3-5.5-4.7-9.4-6.3-12.5c-1.6-3.1-2.3-6.3-3.9-11c-1.6-4.7-3.1-9.4-3.9-14.1C0.8,280.5,0,276.6,0,272.7z"/>
</svg>
